<svg xmlns="http://www.w3.org/2000/svg" width="480pt" height="290pt" viewBox="0 0 480 290" version="1.1" xmlns:xlink="http://www.w3.org/1999/xlink">
  <g id="surface2" transform="matrix(1,0,0,1,-9,-10)">
    <path style="stroke:none;fill-rule:evenodd;fill:rgb(70.588235%,21.960784%,18.039216%);fill-opacity:1" d="M 174.699219 168 C 179.535156 167.632812 184.601562 167.816406 189.898438 168.550781 C 195.234375 169.285156 200.667969 170.300781 206.199219 171.601562 C 211.765625 172.867188 217.332031 174.167969 222.898438 175.5 C 228.464844 176.800781 233.933594 177.851562 239.300781 178.648438 C 244.667969 179.449219 249.800781 179.734375 254.699219 179.5 C 259.632812 179.265625 264.234375 178.25 268.5 176.449219 C 272.765625 174.648438 276.601562 171.800781 280 167.898438 C 273 170.398438 266.082031 171.933594 259.25 172.5 C 252.417969 173.066406 245.734375 173.035156 239.199219 172.398438 C 232.667969 171.765625 226.351562 170.882812 220.25 169.75 C 214.183594 168.648438 208.398438 167.632812 202.898438 166.699219 C 197.433594 165.800781 192.332031 165.367188 187.601562 165.398438 C 182.867188 165.433594 178.566406 166.300781 174.699219 168 "/>
    <path style="stroke:none;fill-rule:evenodd;fill:rgb(98.039216%,80.392157%,46.274510%);fill-opacity:1" d="M 207.851562 114.601562 C 207.183594 116.066406 206.632812 117.582031 206.199219 119.148438 C 206.699219 119.75 207.199219 120.351562 207.699219 120.949219 C 207.933594 118.851562 207.984375 116.734375 207.851562 114.601562 M 292 108.351562 C 291.800781 107.917969 291.601562 107.464844 291.398438 107 C 291.433594 107.566406 291.367188 108.132812 291.199219 108.699219 C 290.800781 107.167969 290.449219 105.601562 290.148438 104 C 289.851562 102.433594 289.464844 100.882812 289 99.351562 C 289 100.851562 288.984375 102.351562 288.949219 103.851562 C 288.917969 105.382812 288.765625 106.882812 288.5 108.351562 C 288.199219 106.785156 287.917969 105.234375 287.648438 103.699219 C 287.351562 102.132812 287.015625 100.582031 286.648438 99.050781 C 286.648438 100.851562 286.316406 102.582031 285.648438 104.25 C 285.648438 102.984375 285.5 101.699219 285.199219 100.398438 C 284.898438 99.066406 284.433594 97.851562 283.800781 96.75 C 283.765625 98.316406 283.601562 99.867188 283.300781 101.398438 C 283.035156 99.5 282.617188 97.648438 282.050781 95.851562 C 281.582031 97.316406 281.316406 98.832031 281.25 100.398438 C 280.816406 98.167969 280.082031 96.066406 279.050781 94.101562 C 279.449219 96.601562 279.582031 99.117188 279.449219 101.648438 C 279.183594 100.816406 278.882812 99.964844 278.550781 99.101562 C 278.25 98.265625 277.984375 97.417969 277.75 96.550781 C 277.617188 97.648438 277.449219 98.117188 277.25 97.949219 C 277.050781 97.785156 276.816406 97.300781 276.550781 96.5 C 276.285156 95.667969 276.035156 94.800781 275.800781 93.898438 C 275.535156 93 275.300781 92.367188 275.101562 92 C 275.433594 94.035156 275.566406 96.167969 275.5 98.398438 C 275.464844 100.632812 275.148438 102.75 274.550781 104.75 C 274.617188 102.015625 274.351562 99.332031 273.75 96.699219 C 273.648438 98.667969 273.398438 100.632812 273 102.601562 C 272.898438 100.332031 272.484375 98.117188 271.75 95.949219 C 271.582031 97.25 271.816406 99.332031 272.449219 102.199219 C 273.082031 105.066406 273.964844 108.550781 275.101562 112.648438 C 276.234375 116.75 277.433594 121.316406 278.699219 126.351562 C 281.566406 123.882812 284.117188 121.148438 286.351562 118.148438 C 288.582031 115.117188 290.464844 111.851562 292 108.351562 M 216.949219 126.449219 C 216.816406 126.683594 216.683594 127.015625 216.550781 127.449219 C 216.417969 127.882812 216.285156 128.332031 216.148438 128.800781 C 216.515625 129.066406 216.882812 129.332031 217.25 129.601562 C 217.214844 128.300781 217.117188 127.25 216.949219 126.449219 M 213.351562 126.601562 C 213.683594 124.167969 214.132812 121.785156 214.699219 119.449219 C 214.332031 120.117188 214.015625 120.816406 213.75 121.550781 C 213.984375 120.449219 214.183594 119.351562 214.351562 118.25 C 214.515625 117.148438 214.714844 116.050781 214.949219 114.949219 C 214.351562 116.148438 213.765625 117.351562 213.199219 118.550781 C 212.667969 119.785156 212.035156 120.949219 211.300781 122.050781 C 212.066406 119.617188 212.550781 117.101562 212.75 114.5 C 212.148438 115.765625 211.617188 117.066406 211.148438 118.398438 C 210.648438 119.699219 210.082031 120.964844 209.449219 122.199219 C 209.949219 120.035156 210.148438 117.851562 210.050781 115.648438 C 209.515625 117.582031 208.816406 119.449219 207.949219 121.25 C 209.617188 123.148438 211.417969 124.933594 213.351562 126.601562 M 295.75 89.050781 C 295.785156 91.015625 295.617188 92.933594 295.25 94.800781 C 295.082031 93.234375 294.867188 91.632812 294.601562 90 C 294.332031 88.332031 293.882812 86.765625 293.25 85.300781 C 293.285156 86.433594 293.300781 87.582031 293.300781 88.75 C 293.300781 89.882812 293.234375 91.015625 293.101562 92.148438 C 292.765625 90.484375 292.398438 88.851562 292 87.25 C 291.566406 85.648438 291.015625 84.066406 290.351562 82.5 C 290.648438 84.566406 290.667969 86.648438 290.398438 88.75 C 290.035156 87.449219 289.617188 86.015625 289.148438 84.449219 C 288.648438 82.917969 287.984375 81.601562 287.148438 80.5 C 287.382812 81.566406 287.601562 82.667969 287.800781 83.800781 C 288 84.898438 288.066406 86.015625 288 87.148438 C 287.066406 84.949219 286.082031 82.785156 285.050781 80.648438 C 285.25 82.015625 285.417969 83.398438 285.550781 84.800781 C 284.882812 83.5 284.148438 82.183594 283.351562 80.851562 C 282.515625 79.515625 281.484375 78.433594 280.25 77.601562 C 281.285156 79.398438 282.214844 81.265625 283.050781 83.199219 C 282.015625 82.398438 281.066406 81.5 280.199219 80.5 C 279.367188 79.535156 278.515625 78.566406 277.648438 77.601562 C 278.382812 79.667969 278.050781 80.382812 276.648438 79.75 C 279.882812 81.714844 282.734375 83.734375 285.199219 85.800781 C 287.667969 87.867188 289.699219 90.132812 291.300781 92.601562 C 292.867188 95.101562 293.933594 97.984375 294.5 101.25 C 295.433594 97.683594 295.984375 93.984375 296.148438 90.148438 C 296.015625 89.785156 295.882812 89.417969 295.75 89.050781 M 209.351562 104.949219 C 208.449219 105.285156 207.699219 105.851562 207.101562 106.648438 C 207.332031 105.617188 207.648438 104.632812 208.050781 103.699219 C 207.515625 103.964844 207.015625 104.417969 206.550781 105.050781 C 206.082031 105.648438 205.714844 106.167969 205.449219 106.601562 C 205.75 105.066406 206.300781 103.617188 207.101562 102.25 C 206.332031 102.714844 205.699219 103.332031 205.199219 104.101562 C 204.699219 104.867188 204.214844 105.632812 203.75 106.398438 C 204.183594 104.734375 204.785156 103.132812 205.550781 101.601562 C 204.75 102.234375 204.066406 103.015625 203.5 103.949219 C 202.933594 104.882812 202.382812 105.785156 201.851562 106.648438 C 201.851562 105.917969 201.984375 105.214844 202.25 104.550781 C 202.515625 103.917969 202.816406 103.285156 203.148438 102.648438 C 202.582031 102.949219 202.082031 103.417969 201.648438 104.050781 C 201.214844 104.683594 200.832031 105.351562 200.5 106.050781 C 200.167969 106.785156 199.882812 107.417969 199.648438 107.949219 C 199.917969 106.382812 200.265625 104.832031 200.699219 103.300781 C 199.964844 104.199219 199.398438 105.214844 199 106.351562 C 199.667969 108.148438 200.449219 109.898438 201.351562 111.601562 C 202.484375 110.964844 203.601562 110.332031 204.699219 109.699219 C 205.800781 109.066406 206.765625 108.382812 207.601562 107.648438 C 208.433594 106.882812 209.015625 105.984375 209.351562 104.949219 M 238.699219 40.25 C 235.199219 40.25 231.765625 40.535156 228.398438 41.101562 C 221.964844 43.535156 216.300781 47.066406 211.398438 51.699219 C 206.464844 56.332031 202.617188 61.765625 199.851562 68 C 197.082031 74.234375 195.667969 80.984375 195.601562 88.25 C 195.632812 93.25 196.332031 98.035156 197.699219 102.601562 C 198.433594 101.066406 199.433594 99.734375 200.699219 98.601562 C 201.601562 97.898438 202.582031 97.382812 203.648438 97.050781 C 204.714844 96.714844 205.765625 96.382812 206.800781 96.050781 C 207.867188 95.683594 208.816406 95.101562 209.648438 94.300781 C 208.714844 94.265625 207.765625 94.367188 206.800781 94.601562 C 205.867188 94.832031 204.949219 95.050781 204.050781 95.25 C 205.515625 94.449219 207.015625 93.699219 208.550781 93 C 207.382812 93 206.25 93.167969 205.148438 93.5 C 204.015625 93.832031 202.917969 94.199219 201.851562 94.601562 C 203.214844 93.601562 204.699219 92.832031 206.300781 92.300781 C 205.265625 92.367188 204.234375 92.582031 203.199219 92.949219 C 202.132812 93.285156 201.117188 93.632812 200.148438 94 C 200.949219 93.132812 201.851562 92.433594 202.851562 91.898438 C 203.882812 91.367188 204.949219 90.917969 206.050781 90.550781 C 204.582031 90.449219 203.082031 90.699219 201.550781 91.300781 C 200.050781 91.898438 198.667969 92.515625 197.398438 93.148438 C 201.234375 89.75 204.851562 87.851562 208.25 87.449219 C 211.617188 87.050781 214.699219 87.964844 217.5 90.199219 C 220.300781 92.464844 222.75 95.882812 224.851562 100.449219 C 225.183594 99.015625 225.382812 97.550781 225.449219 96.050781 C 225.851562 97.082031 226.199219 98.132812 226.5 99.199219 C 227.433594 98 228.535156 97.015625 229.800781 96.25 C 228.867188 97.851562 228 99.5 227.199219 101.199219 C 229.734375 101.132812 231.917969 101.484375 233.75 102.25 C 235.582031 103.050781 237.117188 104.148438 238.351562 105.550781 C 238.25 103.082031 238.617188 100.683594 239.449219 98.351562 C 240.117188 96.683594 241.101562 95.148438 242.398438 93.75 C 243.699219 92.316406 245.050781 90.949219 246.449219 89.648438 C 247.851562 88.316406 249.066406 86.964844 250.101562 85.601562 C 251.132812 84.199219 251.699219 82.699219 251.800781 81.101562 C 250.800781 81.800781 250.066406 82.734375 249.601562 83.898438 C 249.5 82.601562 249.535156 81.285156 249.699219 79.949219 C 249.167969 80.449219 248.714844 81.167969 248.351562 82.101562 C 248.015625 83.035156 247.734375 83.816406 247.5 84.449219 C 247.367188 82.417969 247.566406 80.433594 248.101562 78.5 C 247.300781 79.332031 246.714844 80.300781 246.351562 81.398438 C 245.984375 82.5 245.648438 83.601562 245.351562 84.699219 C 245.351562 82.535156 245.550781 80.367188 245.949219 78.199219 C 245.183594 79.234375 244.601562 80.433594 244.199219 81.800781 C 243.832031 83.132812 243.464844 84.417969 243.101562 85.648438 C 242.867188 84.75 242.800781 83.851562 242.898438 82.949219 C 243 82.082031 243.148438 81.199219 243.351562 80.300781 C 242.75 80.867188 242.285156 81.601562 241.949219 82.5 C 241.617188 83.433594 241.382812 84.398438 241.25 85.398438 C 241.082031 86.398438 240.933594 87.265625 240.800781 88 C 240.601562 86 240.515625 83.984375 240.550781 81.949219 C 240.082031 83.050781 239.765625 84.214844 239.601562 85.449219 C 239.433594 86.714844 239.285156 87.917969 239.148438 89.050781 C 238.617188 87.449219 238.433594 85.800781 238.601562 84.101562 C 237.867188 85.265625 237.300781 86.515625 236.898438 87.851562 C 236.5 89.183594 236.148438 90.5 235.851562 91.800781 C 235.851562 90.066406 235.917969 88.285156 236.050781 86.449219 C 236.148438 84.617188 236.417969 82.816406 236.851562 81.050781 C 237.285156 79.285156 238 77.648438 239 76.148438 C 239.867188 74.984375 240.898438 74.015625 242.101562 73.25 C 243.332031 72.515625 244.535156 71.75 245.699219 70.949219 C 246.867188 70.148438 247.832031 69.117188 248.601562 67.851562 C 247.433594 68.148438 246.300781 68.601562 245.199219 69.199219 C 244.132812 69.800781 243.066406 70.367188 242 70.898438 C 243.566406 69.433594 245.183594 68.015625 246.851562 66.648438 C 245.417969 67.050781 244.066406 67.632812 242.800781 68.398438 C 241.5 69.199219 240.265625 70.015625 239.101562 70.851562 C 240.433594 69.148438 242.015625 67.699219 243.851562 66.5 C 242.550781 66.933594 241.332031 67.550781 240.199219 68.351562 C 239.035156 69.148438 237.898438 69.917969 236.800781 70.648438 C 237.5 69.316406 238.382812 68.148438 239.449219 67.148438 C 240.515625 66.183594 241.667969 65.285156 242.898438 64.449219 C 241.667969 64.648438 240.484375 65.101562 239.351562 65.800781 C 238.183594 66.464844 237.082031 67.214844 236.050781 68.050781 C 235.015625 68.917969 234.035156 69.75 233.101562 70.550781 C 236.699219 65.082031 240.515625 61.535156 244.550781 59.898438 C 248.617188 58.265625 252.75 58.382812 256.949219 60.25 C 261.148438 62.082031 265.285156 65.464844 269.351562 70.398438 C 269.285156 68.5 269.050781 66.617188 268.648438 64.75 C 269.484375 65.917969 270.265625 67.101562 271 68.300781 C 271.734375 66.535156 272.765625 64.949219 274.101562 63.550781 C 273.433594 65.851562 272.898438 68.183594 272.5 70.550781 C 276.535156 69.382812 280.082031 69.234375 283.148438 70.101562 C 286.183594 70.964844 288.765625 72.566406 290.898438 74.898438 C 293.035156 77.234375 294.714844 80 295.949219 83.199219 C 295.515625 79.066406 294.617188 75.101562 293.25 71.300781 C 289.515625 65.066406 284.882812 59.632812 279.351562 55 C 273.816406 50.367188 267.601562 46.75 260.699219 44.148438 C 253.800781 41.582031 246.464844 40.285156 238.699219 40.25 M 274 130 C 273.433594 126.167969 272.832031 122.582031 272.199219 119.25 C 271.566406 115.949219 270.917969 113.082031 270.25 110.648438 C 269.582031 108.183594 268.917969 106.316406 268.25 105.050781 C 268.183594 105.515625 268.132812 106.148438 268.101562 106.949219 C 268.101562 107.785156 268.066406 108.535156 268 109.199219 C 267.933594 109.898438 267.800781 110.265625 267.601562 110.300781 C 267.367188 110.332031 267.035156 109.800781 266.601562 108.699219 C 266.5 110.167969 266.382812 111.648438 266.25 113.148438 C 266.050781 112.015625 265.816406 110.867188 265.550781 109.699219 C 265.285156 108.566406 265.035156 107.417969 264.800781 106.25 C 264.734375 107.25 264.699219 108.199219 264.699219 109.101562 C 264.667969 110 264.714844 110.949219 264.851562 111.949219 C 264.351562 109.550781 263.964844 107.101562 263.699219 104.601562 C 263.398438 102.101562 263.214844 99.617188 263.148438 97.148438 C 262.949219 98.117188 262.800781 99.082031 262.699219 100.050781 C 262.632812 98.617188 262.515625 97.199219 262.351562 95.800781 C 262.183594 94.367188 262.050781 92.949219 261.949219 91.550781 C 261.617188 93.214844 261.316406 94.882812 261.050781 96.550781 C 260.785156 98.25 260.398438 99.898438 259.898438 101.5 C 260.035156 98.234375 259.785156 94.984375 259.148438 91.75 C 258.851562 93.515625 258.617188 95.285156 258.449219 97.050781 C 258.285156 98.816406 258 100.566406 257.601562 102.300781 C 257.601562 100.898438 257.464844 99.5 257.199219 98.101562 C 256.933594 96.734375 256.601562 95.367188 256.199219 94 C 256.199219 96.964844 255.867188 99.898438 255.199219 102.800781 C 255.101562 101.199219 254.851562 99.632812 254.449219 98.101562 C 254.050781 96.535156 253.617188 95 253.148438 93.5 C 252.714844 95.964844 252.535156 98.484375 252.601562 101.050781 C 252.699219 103.617188 252.785156 106.132812 252.851562 108.601562 C 252.515625 107.5 252.214844 106.367188 251.949219 105.199219 C 251.648438 104.066406 251.199219 103 250.601562 102 C 250.667969 103.398438 250.714844 104.800781 250.75 106.199219 C 250.785156 107.601562 250.699219 109 250.5 110.398438 C 250.398438 109.035156 250.167969 107.699219 249.800781 106.398438 C 249.464844 105.066406 249.082031 103.75 248.648438 102.449219 C 248.484375 104.148438 248.433594 105.867188 248.5 107.601562 C 248.566406 109.332031 248.617188 111.050781 248.648438 112.75 C 247.949219 110.917969 247.433594 109.015625 247.101562 107.050781 C 246.832031 109.785156 246.800781 112.515625 247 115.25 C 246.234375 113.683594 245.714844 111.984375 245.449219 110.148438 C 245.183594 108.285156 244.949219 106.5 244.75 104.800781 C 244.351562 106.933594 244.214844 109.101562 244.351562 111.300781 C 244.484375 113.535156 244.714844 115.714844 245.050781 117.851562 C 244.214844 115.683594 243.566406 113.464844 243.101562 111.199219 C 242.601562 108.933594 242.148438 106.667969 241.75 104.398438 C 241.417969 106.535156 241.285156 108.683594 241.351562 110.851562 C 242.214844 113.617188 242.601562 116.550781 242.5 119.648438 C 242.367188 122.785156 241.851562 125.765625 240.949219 128.601562 C 241.25 125.734375 241.265625 122.867188 241 120 C 240.632812 121.464844 240.117188 122.882812 239.449219 124.25 C 239.648438 123.015625 239.816406 121.75 239.949219 120.449219 C 240.082031 119.148438 240.050781 117.882812 239.851562 116.648438 C 239.515625 118.382812 239.015625 120.082031 238.351562 121.75 C 238.449219 120.449219 238.5 119.148438 238.5 117.851562 C 238.535156 116.550781 238.449219 115.234375 238.25 113.898438 C 238.050781 115.535156 237.648438 117.117188 237.050781 118.648438 C 237.015625 117.582031 236.984375 116.417969 236.949219 115.148438 C 236.882812 113.882812 236.648438 112.75 236.25 111.75 C 236.183594 112.617188 236.117188 113.484375 236.050781 114.351562 C 235.984375 115.25 235.816406 116.117188 235.550781 116.949219 C 235.285156 115.082031 234.984375 113.234375 234.648438 111.398438 C 234.515625 112.5 234.351562 113.582031 234.148438 114.648438 C 233.917969 113.550781 233.632812 112.417969 233.300781 111.25 C 232.933594 110.050781 232.367188 109.015625 231.601562 108.148438 C 232.035156 109.714844 232.367188 111.316406 232.601562 112.949219 C 231.964844 112.117188 231.433594 111.25 231 110.351562 C 230.566406 109.417969 230.117188 108.5 229.648438 107.601562 C 229.785156 109.300781 229.382812 109.765625 228.449219 109 C 231.050781 111.734375 233.148438 114.398438 234.75 117 C 236.382812 119.632812 237.332031 122.449219 237.601562 125.449219 C 237.867188 128.417969 237.316406 131.851562 235.949219 135.75 C 236.050781 133.183594 236.050781 130.632812 235.949219 128.101562 C 235.648438 129.265625 235.398438 130.433594 235.199219 131.601562 C 235 132.800781 234.734375 133.964844 234.398438 135.101562 C 234.265625 134.300781 234.148438 133.484375 234.050781 132.648438 C 233.949219 133.082031 233.785156 133.5 233.550781 133.898438 C 233.550781 132.632812 233.601562 131.382812 233.699219 130.148438 C 233.800781 128.917969 233.832031 127.667969 233.800781 126.398438 C 233.464844 127.535156 233.132812 128.667969 232.800781 129.800781 C 232.5 130.933594 232.082031 132.035156 231.550781 133.101562 C 231.816406 130.632812 232 128.148438 232.101562 125.648438 C 231.699219 127.015625 231.082031 128.265625 230.25 129.398438 C 230.515625 128.464844 230.667969 127.464844 230.699219 126.398438 C 230.734375 125.332031 230.617188 124.316406 230.351562 123.351562 C 230.050781 124.515625 229.632812 125.648438 229.101562 126.75 C 229.234375 125.285156 229.285156 123.800781 229.25 122.300781 C 228.582031 123.332031 228.066406 124.433594 227.699219 125.601562 C 227.832031 123.832031 227.699219 122.082031 227.300781 120.351562 C 227.132812 122.351562 226.734375 124.285156 226.101562 126.148438 C 226.066406 125.449219 226.015625 124.75 225.949219 124.050781 C 225.882812 123.351562 225.851562 122.648438 225.851562 121.949219 C 225.515625 122.75 225.300781 123.066406 225.199219 122.898438 C 225.066406 122.734375 224.984375 122.316406 224.949219 121.648438 C 224.917969 120.984375 224.898438 120.285156 224.898438 119.550781 C 224.898438 118.851562 224.851562 118.332031 224.75 118 C 224.582031 119.601562 224.25 121.234375 223.75 122.898438 C 223.285156 124.601562 222.617188 126.132812 221.75 127.5 C 222.351562 125.464844 222.699219 123.382812 222.800781 121.25 C 222.300781 122.714844 221.714844 124.148438 221.050781 125.550781 C 221.417969 123.816406 221.535156 122.066406 221.398438 120.300781 C 221.035156 121.132812 220.800781 122.535156 220.699219 124.5 C 220.601562 126.464844 220.550781 128.867188 220.550781 131.699219 C 224.285156 133.898438 228.285156 135.582031 232.550781 136.75 C 236.816406 137.949219 241.265625 138.550781 245.898438 138.550781 C 251.132812 138.515625 256.117188 137.765625 260.851562 136.300781 C 265.582031 134.800781 269.964844 132.699219 274 130 M 198.550781 105.25 C 198.515625 105.117188 198.464844 105 198.398438 104.898438 C 198.535156 104.765625 198.648438 104.648438 198.75 104.550781 C 198.683594 104.785156 198.617188 105.015625 198.550781 105.25 "/>
    <path style="stroke:none;fill-rule:evenodd;fill:rgb(14.509804%,27.450980%,45.882353%);fill-opacity:1" d="M 283.550781 148.601562 C 283.515625 148.601562 283.484375 148.601562 283.449219 148.601562 C 282.816406 144.667969 282.082031 140.832031 281.25 137.101562 C 280.449219 133.367188 279.617188 129.800781 278.75 126.398438 C 277.449219 121.367188 276.234375 116.800781 275.101562 112.699219 C 274 108.601562 273.117188 105.117188 272.449219 102.25 C 271.816406 99.382812 271.582031 97.300781 271.75 96 C 272.515625 98.132812 272.949219 100.332031 273.050781 102.601562 C 273.417969 100.667969 273.667969 98.714844 273.800781 96.75 C 274.367188 99.382812 274.617188 102.050781 274.550781 104.75 C 275.148438 102.785156 275.484375 100.683594 275.550781 98.449219 C 275.582031 96.214844 275.433594 94.082031 275.101562 92.050781 C 275.300781 92.417969 275.535156 93.050781 275.800781 93.949219 C 276.066406 94.851562 276.316406 95.699219 276.550781 96.5 C 276.816406 97.332031 277.066406 97.832031 277.300781 98 C 277.5 98.167969 277.667969 97.699219 277.800781 96.601562 C 278.035156 97.464844 278.300781 98.316406 278.601562 99.148438 C 278.898438 99.984375 279.183594 100.832031 279.449219 101.699219 C 279.617188 99.132812 279.484375 96.601562 279.050781 94.101562 C 280.082031 96.101562 280.816406 98.199219 281.25 100.398438 C 281.351562 98.867188 281.617188 97.351562 282.050781 95.851562 C 282.617188 97.683594 283.050781 99.535156 283.351562 101.398438 C 283.648438 99.898438 283.800781 98.367188 283.800781 96.800781 C 284.433594 97.898438 284.898438 99.101562 285.199219 100.398438 C 285.535156 101.734375 285.699219 103.035156 285.699219 104.300781 C 286.332031 102.601562 286.667969 100.851562 286.699219 99.050781 C 287.398438 102.148438 288 105.265625 288.5 108.398438 C 288.800781 106.933594 288.949219 105.433594 288.949219 103.898438 C 288.984375 102.398438 289.015625 100.898438 289.050781 99.398438 C 289.484375 100.933594 289.851562 102.484375 290.148438 104.050781 C 290.449219 105.617188 290.816406 107.167969 291.25 108.699219 C 291.382812 108.167969 291.449219 107.617188 291.449219 107.050781 C 291.617188 107.515625 291.800781 107.964844 292 108.398438 C 292.234375 108.898438 292.449219 109.398438 292.648438 109.898438 C 292.683594 108.933594 292.667969 107.949219 292.601562 106.949219 C 292.535156 105.949219 292.464844 104.933594 292.398438 103.898438 C 292.300781 102.867188 292.25 101.832031 292.25 100.800781 C 292.648438 102.132812 293.035156 103.464844 293.398438 104.800781 C 293.898438 106.601562 294.367188 108.398438 294.800781 110.199219 C 295.066406 106.867188 294.964844 103.898438 294.5 101.300781 C 293.933594 98.035156 292.867188 95.148438 291.300781 92.648438 C 289.734375 90.148438 287.714844 87.867188 285.25 85.800781 C 282.785156 83.765625 279.933594 81.75 276.699219 79.75 C 276.234375 79.550781 275.667969 79.214844 275 78.75 C 275.566406 79.082031 276.132812 79.417969 276.699219 79.75 C 278.066406 80.382812 278.382812 79.683594 277.648438 77.648438 C 278.550781 78.617188 279.417969 79.582031 280.25 80.550781 C 281.082031 81.550781 282.035156 82.433594 283.101562 83.199219 C 282.265625 81.300781 281.316406 79.449219 280.25 77.648438 C 281.515625 78.449219 282.550781 79.535156 283.351562 80.898438 C 284.183594 82.234375 284.917969 83.535156 285.550781 84.800781 C 285.449219 83.433594 285.300781 82.050781 285.101562 80.648438 C 286.132812 82.816406 287.117188 84.984375 288.050781 87.148438 C 288.117188 86.050781 288.035156 84.933594 287.800781 83.800781 C 287.601562 82.699219 287.382812 81.617188 287.148438 80.550781 C 288.015625 81.648438 288.683594 82.964844 289.148438 84.5 C 289.648438 86.035156 290.082031 87.449219 290.449219 88.75 C 290.683594 86.683594 290.648438 84.617188 290.351562 82.550781 C 291.015625 84.082031 291.566406 85.667969 292 87.300781 C 292.398438 88.898438 292.765625 90.535156 293.101562 92.199219 C 293.265625 91.066406 293.351562 89.917969 293.351562 88.75 C 293.316406 87.617188 293.285156 86.484375 293.25 85.351562 C 293.882812 86.816406 294.351562 88.367188 294.648438 90 C 294.917969 91.667969 295.117188 93.285156 295.25 94.851562 C 295.648438 92.949219 295.832031 91.035156 295.800781 89.101562 C 295.933594 89.464844 296.050781 89.832031 296.148438 90.199219 C 297.25 93.332031 298.066406 96.515625 298.601562 99.75 C 298.734375 97.015625 298.582031 94.234375 298.148438 91.398438 C 297.714844 88.566406 296.984375 85.851562 295.949219 83.25 C 294.714844 80.050781 293.050781 77.285156 290.949219 74.949219 C 288.816406 72.617188 286.214844 71.015625 283.148438 70.148438 C 280.082031 69.25 276.535156 69.382812 272.5 70.550781 C 272.933594 68.214844 273.464844 65.898438 274.101562 63.601562 C 272.765625 65 271.75 66.582031 271.050781 68.351562 C 270.285156 67.148438 269.5 65.964844 268.699219 64.800781 C 269.101562 66.667969 269.316406 68.550781 269.351562 70.449219 C 265.285156 65.515625 261.148438 62.132812 256.949219 60.300781 C 252.75 58.433594 248.632812 58.316406 244.601562 59.949219 C 240.566406 61.550781 236.75 65.082031 233.148438 70.550781 C 234.050781 69.785156 235.015625 68.964844 236.050781 68.101562 C 237.117188 67.234375 238.214844 66.464844 239.351562 65.800781 C 240.515625 65.132812 241.699219 64.683594 242.898438 64.449219 C 241.699219 65.316406 240.550781 66.234375 239.449219 67.199219 C 238.382812 68.199219 237.5 69.367188 236.800781 70.699219 C 237.898438 69.933594 239.035156 69.148438 240.199219 68.351562 C 241.367188 67.550781 242.582031 66.949219 243.851562 66.550781 C 242.015625 67.714844 240.433594 69.167969 239.101562 70.898438 C 240.300781 70.035156 241.535156 69.214844 242.800781 68.449219 C 244.066406 67.648438 245.417969 67.066406 246.851562 66.699219 C 245.183594 68.035156 243.582031 69.449219 242.050781 70.949219 C 243.082031 70.382812 244.148438 69.800781 245.25 69.199219 C 246.316406 68.632812 247.433594 68.199219 248.601562 67.898438 C 247.832031 69.167969 246.867188 70.199219 245.699219 71 C 244.535156 71.765625 243.351562 72.535156 242.148438 73.300781 C 240.949219 74.066406 239.917969 75.035156 239.050781 76.199219 C 238.050781 77.667969 237.332031 79.285156 236.898438 81.050781 C 236.433594 82.816406 236.148438 84.632812 236.050781 86.5 C 235.949219 88.332031 235.898438 90.117188 235.898438 91.851562 C 236.167969 90.515625 236.5 89.183594 236.898438 87.851562 C 237.332031 86.515625 237.917969 85.285156 238.648438 84.148438 C 238.484375 85.851562 238.648438 87.5 239.148438 89.101562 C 239.285156 87.933594 239.433594 86.734375 239.601562 85.5 C 239.765625 84.234375 240.082031 83.066406 240.550781 82 C 240.550781 84.035156 240.648438 86.050781 240.851562 88.050781 C 240.984375 87.316406 241.117188 86.449219 241.25 85.449219 C 241.417969 84.449219 241.667969 83.484375 242 82.550781 C 242.300781 81.617188 242.765625 80.882812 243.398438 80.351562 C 243.199219 81.25 243.035156 82.132812 242.898438 83 C 242.800781 83.898438 242.867188 84.800781 243.101562 85.699219 C 243.464844 84.464844 243.851562 83.183594 244.25 81.851562 C 244.617188 80.484375 245.199219 79.285156 246 78.25 C 245.566406 80.417969 245.367188 82.582031 245.398438 84.75 C 245.699219 83.648438 246.035156 82.550781 246.398438 81.449219 C 246.765625 80.351562 247.351562 79.382812 248.148438 78.550781 C 247.617188 80.484375 247.417969 82.464844 247.550781 84.5 C 247.75 83.867188 248.035156 83.082031 248.398438 82.148438 C 248.734375 81.214844 249.183594 80.5 249.75 80 C 249.582031 81.300781 249.535156 82.617188 249.601562 83.949219 C 250.066406 82.785156 250.800781 81.851562 251.800781 81.148438 C 251.699219 82.75 251.132812 84.25 250.101562 85.648438 C 249.101562 87.015625 247.882812 88.351562 246.449219 89.648438 C 245.050781 90.984375 243.699219 92.351562 242.398438 93.75 C 241.132812 95.148438 240.167969 96.683594 239.5 98.351562 C 238.667969 100.714844 238.285156 103.117188 238.351562 105.550781 C 237.148438 104.148438 235.617188 103.066406 233.75 102.300781 C 231.917969 101.535156 229.734375 101.183594 227.199219 101.25 C 228 99.550781 228.882812 97.898438 229.851562 96.300781 C 228.550781 97.066406 227.449219 98.050781 226.550781 99.25 C 226.214844 98.183594 225.867188 97.132812 225.5 96.101562 C 225.433594 97.566406 225.214844 99.035156 224.851562 100.5 C 222.785156 95.933594 220.351562 92.515625 217.550781 90.25 C 214.75 88.015625 211.648438 87.082031 208.25 87.449219 C 204.851562 87.851562 201.234375 89.765625 197.398438 93.199219 C 198.699219 92.566406 200.101562 91.949219 201.601562 91.351562 C 203.101562 90.714844 204.582031 90.449219 206.050781 90.550781 C 204.949219 90.949219 203.898438 91.417969 202.898438 91.949219 C 201.898438 92.484375 201 93.183594 200.199219 94.050781 C 201.167969 93.683594 202.167969 93.316406 203.199219 92.949219 C 204.234375 92.582031 205.285156 92.382812 206.351562 92.351562 C 204.714844 92.851562 203.214844 93.617188 201.851562 94.648438 C 202.949219 94.25 204.050781 93.882812 205.148438 93.550781 C 206.285156 93.214844 207.433594 93.050781 208.601562 93.050781 C 207.066406 93.75 205.550781 94.5 204.050781 95.300781 C 204.984375 95.101562 205.917969 94.882812 206.851562 94.648438 C 207.785156 94.417969 208.714844 94.300781 209.648438 94.300781 C 208.816406 95.101562 207.882812 95.683594 206.851562 96.050781 C 205.785156 96.417969 204.714844 96.765625 203.648438 97.101562 C 202.617188 97.433594 201.648438 97.949219 200.75 98.648438 C 199.484375 99.75 198.464844 101.082031 197.699219 102.648438 C 197.132812 103.816406 196.648438 105.015625 196.25 106.25 C 195.816406 107.484375 195.449219 108.683594 195.148438 109.851562 C 195.582031 108.984375 196.066406 108.117188 196.601562 107.25 C 197.132812 106.382812 197.75 105.601562 198.449219 104.898438 C 198.550781 104.800781 198.667969 104.699219 198.800781 104.601562 C 198.699219 104.800781 198.617188 105.035156 198.550781 105.300781 C 198.25 106.300781 198.132812 107.351562 198.199219 108.449219 C 198.464844 107.785156 198.734375 107.101562 199 106.398438 C 199.433594 105.265625 200 104.25 200.699219 103.351562 C 200.265625 104.882812 199.917969 106.417969 199.648438 107.949219 C 199.917969 107.417969 200.199219 106.800781 200.5 106.101562 C 200.832031 105.367188 201.214844 104.683594 201.648438 104.050781 C 202.082031 103.417969 202.582031 102.949219 203.148438 102.648438 C 202.816406 103.285156 202.515625 103.933594 202.25 104.601562 C 201.984375 105.234375 201.851562 105.917969 201.851562 106.648438 C 202.382812 105.816406 202.933594 104.917969 203.5 103.949219 C 204.066406 103.015625 204.75 102.25 205.550781 101.648438 C 204.816406 103.183594 204.234375 104.765625 203.800781 106.398438 C 204.234375 105.632812 204.699219 104.867188 205.199219 104.101562 C 205.734375 103.367188 206.382812 102.75 207.148438 102.25 C 206.351562 103.648438 205.785156 105.117188 205.449219 106.648438 C 205.75 106.214844 206.132812 105.683594 206.601562 105.050781 C 207.035156 104.417969 207.515625 103.964844 208.050781 103.699219 C 207.648438 104.667969 207.351562 105.648438 207.148438 106.648438 C 207.75 105.882812 208.5 105.332031 209.398438 105 C 209.035156 106.035156 208.433594 106.917969 207.601562 107.648438 C 206.765625 108.417969 205.800781 109.117188 204.699219 109.75 C 203.601562 110.351562 202.484375 110.964844 201.351562 111.601562 C 200.417969 112.132812 199.535156 112.714844 198.699219 113.351562 C 197.867188 113.984375 197.148438 114.699219 196.550781 115.5 C 195.351562 117.265625 194.535156 119.167969 194.101562 121.199219 C 193.667969 123.199219 193.464844 125.265625 193.5 127.398438 C 193.535156 129.5 193.632812 131.566406 193.800781 133.601562 C 194.167969 131.433594 194.566406 129.234375 195 127 C 195.433594 124.765625 196.117188 122.617188 197.050781 120.550781 C 196.851562 122.351562 196.714844 124.167969 196.648438 126 C 196.550781 127.800781 196.582031 129.601562 196.75 131.398438 C 196.949219 129.734375 197.214844 128.050781 197.550781 126.351562 C 197.917969 124.648438 198.464844 123.035156 199.199219 121.5 C 199 122.832031 198.816406 124.214844 198.648438 125.648438 C 198.484375 127.117188 198.515625 128.515625 198.75 129.851562 C 199.183594 127.75 199.785156 125.699219 200.550781 123.699219 C 200.382812 125.234375 200.382812 126.765625 200.550781 128.300781 C 200.882812 127 201.199219 125.699219 201.5 124.398438 C 201.800781 123.066406 202.183594 121.765625 202.648438 120.5 C 202.714844 121.566406 202.75 122.632812 202.75 123.699219 C 202.714844 124.800781 202.617188 125.867188 202.449219 126.898438 C 202.882812 125.867188 203.214844 124.832031 203.449219 123.800781 C 203.714844 122.734375 203.964844 121.648438 204.199219 120.550781 C 204.464844 121.449219 204.582031 122.367188 204.550781 123.300781 C 204.550781 124.199219 204.550781 125.117188 204.550781 126.050781 C 205.082031 123.785156 205.648438 121.484375 206.25 119.148438 C 206.648438 117.582031 207.183594 116.082031 207.851562 114.648438 C 207.984375 116.75 207.933594 118.851562 207.699219 120.949219 C 207.667969 121.351562 207.617188 121.734375 207.550781 122.101562 C 207.683594 121.832031 207.816406 121.550781 207.949219 121.25 C 208.851562 119.449219 209.566406 117.601562 210.101562 115.699219 C 210.101562 116.765625 210.066406 117.867188 210 119 C 209.898438 120.101562 209.714844 121.183594 209.449219 122.25 C 210.082031 121.015625 210.648438 119.734375 211.148438 118.398438 C 211.648438 117.101562 212.199219 115.816406 212.800781 114.550781 C 212.601562 117.117188 212.117188 119.632812 211.351562 122.101562 C 212.050781 120.964844 212.683594 119.800781 213.25 118.601562 C 213.785156 117.367188 214.351562 116.167969 214.949219 115 C 214.75 116.101562 214.566406 117.199219 214.398438 118.300781 C 214.234375 119.398438 214.015625 120.484375 213.75 121.550781 C 214.050781 120.851562 214.367188 120.167969 214.699219 119.5 C 214.132812 121.832031 213.699219 124.214844 213.398438 126.648438 C 213.199219 128.117188 213.050781 129.566406 212.949219 131 C 213.050781 130.300781 213.183594 129.632812 213.351562 129 C 213.515625 128.367188 213.714844 127.734375 213.949219 127.101562 C 213.984375 126.964844 214.015625 126.832031 214.050781 126.699219 C 214.050781 126.867188 214.050781 127.035156 214.050781 127.199219 C 213.984375 128.867188 213.882812 130.535156 213.75 132.199219 C 214.148438 131.101562 214.550781 130 214.949219 128.898438 C 215.050781 129.667969 215.167969 130.117188 215.300781 130.25 C 215.433594 130.382812 215.566406 130.300781 215.699219 130 C 215.867188 129.699219 216.015625 129.316406 216.148438 128.851562 C 216.285156 128.382812 216.433594 127.933594 216.601562 127.5 C 216.734375 127.066406 216.851562 126.734375 216.949219 126.5 C 217.117188 127.300781 217.234375 128.351562 217.300781 129.648438 C 217.367188 131.25 217.332031 133.167969 217.199219 135.398438 C 217.101562 137.601562 216.898438 140.015625 216.601562 142.648438 C 212.734375 142.550781 209.066406 142.800781 205.601562 143.398438 C 202.167969 143.964844 198.984375 144.984375 196.050781 146.449219 C 199.214844 146.050781 202.484375 145.867188 205.851562 145.898438 C 209.214844 145.964844 212.667969 146.183594 216.199219 146.550781 C 215.800781 149.582031 215.351562 152.683594 214.851562 155.851562 C 209.648438 155.117188 204.632812 154.433594 199.800781 153.800781 C 194.800781 149.898438 190.484375 145.351562 186.851562 140.148438 C 183.183594 134.984375 180.351562 129.316406 178.351562 123.148438 C 176.351562 117.015625 175.332031 110.535156 175.300781 103.699219 C 175.332031 95.800781 176.683594 88.351562 179.351562 81.351562 C 182.015625 74.351562 185.75 68.050781 190.550781 62.449219 C 195.351562 56.882812 200.964844 52.25 207.398438 48.550781 C 213.832031 44.882812 220.832031 42.417969 228.398438 41.148438 C 231.765625 40.582031 235.214844 40.300781 238.75 40.300781 C 246.515625 40.332031 253.851562 41.632812 260.75 44.199219 C 267.617188 46.765625 273.832031 50.382812 279.398438 55.050781 C 284.933594 59.683594 289.566406 65.117188 293.300781 71.351562 C 296.132812 76.117188 298.316406 81.214844 299.851562 86.648438 C 301.382812 92.082031 302.148438 97.765625 302.148438 103.699219 C 302.082031 112.535156 300.417969 120.785156 297.148438 128.449219 C 293.882812 136.082031 289.351562 142.800781 283.550781 148.601562 M 220.550781 142.75 C 220.582031 138.648438 220.582031 134.984375 220.550781 131.75 C 220.550781 128.917969 220.617188 126.515625 220.75 124.550781 C 220.851562 122.582031 221.082031 121.167969 221.449219 120.300781 C 221.550781 122.101562 221.417969 123.867188 221.050781 125.601562 C 221.75 124.199219 222.332031 122.765625 222.800781 121.300781 C 222.734375 123.433594 222.398438 125.515625 221.800781 127.550781 C 222.632812 126.183594 223.300781 124.648438 223.800781 122.949219 C 224.300781 121.25 224.632812 119.601562 224.800781 118 C 224.867188 118.332031 224.917969 118.867188 224.949219 119.601562 C 224.949219 120.332031 224.964844 121.035156 225 121.699219 C 225 122.367188 225.066406 122.785156 225.199219 122.949219 C 225.332031 123.117188 225.566406 122.800781 225.898438 122 C 225.898438 122.699219 225.917969 123.398438 225.949219 124.101562 C 226.015625 124.800781 226.066406 125.5 226.101562 126.199219 C 226.734375 124.300781 227.148438 122.367188 227.351562 120.398438 C 227.714844 122.132812 227.851562 123.867188 227.75 125.601562 C 228.117188 124.433594 228.617188 123.351562 229.25 122.351562 C 229.316406 123.816406 229.265625 125.300781 229.101562 126.800781 C 229.632812 125.699219 230.066406 124.566406 230.398438 123.398438 C 230.632812 124.367188 230.734375 125.382812 230.699219 126.449219 C 230.667969 127.515625 230.535156 128.515625 230.300781 129.449219 C 231.132812 128.316406 231.734375 127.066406 232.101562 125.699219 C 232 128.167969 231.816406 130.632812 231.550781 133.101562 C 232.082031 132.066406 232.515625 130.984375 232.851562 129.851562 C 233.183594 128.714844 233.5 127.582031 233.800781 126.449219 C 233.832031 127.683594 233.800781 128.933594 233.699219 130.199219 C 233.632812 131.433594 233.601562 132.683594 233.601562 133.949219 C 233.800781 133.550781 233.964844 133.132812 234.101562 132.699219 C 234.167969 133.5 234.265625 134.316406 234.398438 135.148438 C 234.734375 133.984375 235 132.816406 235.199219 131.648438 C 235.398438 130.484375 235.648438 129.316406 235.949219 128.148438 C 236.050781 130.683594 236.050781 133.214844 235.949219 135.75 C 237.351562 131.882812 237.898438 128.449219 237.601562 125.449219 C 237.332031 122.449219 236.398438 119.648438 234.800781 117.050781 C 233.199219 114.449219 231.101562 111.785156 228.5 109.050781 C 228.167969 108.816406 227.800781 108.433594 227.398438 107.898438 C 227.765625 108.300781 228.132812 108.683594 228.5 109.050781 C 229.398438 109.816406 229.785156 109.351562 229.648438 107.648438 C 230.117188 108.550781 230.566406 109.449219 231 110.351562 C 231.464844 111.285156 232 112.148438 232.601562 112.949219 C 232.367188 111.351562 232.050781 109.765625 231.648438 108.199219 C 232.417969 109.066406 232.964844 110.082031 233.300781 111.25 C 233.632812 112.449219 233.917969 113.601562 234.148438 114.699219 C 234.351562 113.601562 234.515625 112.515625 234.648438 111.449219 C 234.984375 113.285156 235.285156 115.117188 235.550781 116.949219 C 235.816406 116.117188 236 115.265625 236.101562 114.398438 C 236.167969 113.5 236.214844 112.617188 236.25 111.75 C 236.683594 112.785156 236.917969 113.933594 236.949219 115.199219 C 237.015625 116.464844 237.050781 117.617188 237.050781 118.648438 C 237.648438 117.148438 238.066406 115.582031 238.300781 113.949219 C 238.464844 115.25 238.550781 116.550781 238.550781 117.851562 C 238.515625 119.183594 238.464844 120.5 238.398438 121.800781 C 239.035156 120.132812 239.535156 118.417969 239.898438 116.648438 C 240.066406 117.917969 240.082031 119.199219 239.949219 120.5 C 239.816406 121.800781 239.648438 123.050781 239.449219 124.25 C 240.148438 122.917969 240.683594 121.5 241.050781 120 C 241.285156 122.898438 241.265625 125.785156 241 128.648438 C 241.898438 125.816406 242.398438 122.832031 242.5 119.699219 C 242.632812 116.601562 242.25 113.667969 241.351562 110.898438 C 241.285156 108.699219 241.433594 106.550781 241.800781 104.449219 C 242.167969 106.714844 242.601562 108.984375 243.101562 111.25 C 243.601562 113.484375 244.25 115.699219 245.050781 117.898438 C 244.714844 115.734375 244.484375 113.550781 244.351562 111.351562 C 244.25 109.148438 244.398438 106.984375 244.800781 104.851562 C 244.964844 106.550781 245.183594 108.316406 245.449219 110.148438 C 245.714844 112.015625 246.234375 113.714844 247 115.25 C 246.800781 112.550781 246.851562 109.832031 247.148438 107.101562 C 247.484375 109.066406 247.984375 110.964844 248.648438 112.800781 C 248.648438 111.101562 248.617188 109.382812 248.550781 107.648438 C 248.484375 105.917969 248.515625 104.199219 248.648438 102.5 C 249.117188 103.800781 249.515625 105.101562 249.851562 106.398438 C 250.183594 107.734375 250.417969 109.082031 250.550781 110.449219 C 250.75 109.050781 250.832031 107.648438 250.800781 106.25 C 250.734375 104.851562 250.667969 103.433594 250.601562 102 C 251.199219 103.035156 251.648438 104.117188 251.949219 105.25 C 252.25 106.382812 252.566406 107.515625 252.898438 108.648438 C 252.800781 106.148438 252.714844 103.617188 252.648438 101.050781 C 252.582031 98.484375 252.75 95.964844 253.148438 93.5 C 253.648438 95.035156 254.082031 96.566406 254.449219 98.101562 C 254.851562 99.667969 255.117188 101.234375 255.25 102.800781 C 255.882812 99.933594 256.214844 97.015625 256.25 94.050781 C 256.617188 95.382812 256.933594 96.75 257.199219 98.148438 C 257.464844 99.550781 257.617188 100.949219 257.648438 102.351562 C 258.015625 100.617188 258.285156 98.851562 258.449219 97.050781 C 258.617188 95.285156 258.867188 93.535156 259.199219 91.800781 C 259.800781 95 260.035156 98.25 259.898438 101.550781 C 260.433594 99.917969 260.832031 98.265625 261.101562 96.601562 C 261.367188 94.898438 261.667969 93.234375 262 91.601562 C 262.101562 93 262.234375 94.417969 262.398438 95.851562 C 262.566406 97.25 262.683594 98.667969 262.75 100.101562 C 262.816406 99.101562 262.964844 98.132812 263.199219 97.199219 C 263.265625 99.667969 263.433594 102.148438 263.699219 104.648438 C 263.964844 107.117188 264.351562 109.566406 264.851562 112 C 264.75 111 264.699219 110.050781 264.699219 109.148438 C 264.699219 108.214844 264.734375 107.265625 264.800781 106.300781 C 265.035156 107.464844 265.285156 108.617188 265.550781 109.75 C 265.816406 110.882812 266.066406 112.035156 266.300781 113.199219 C 266.398438 111.699219 266.5 110.199219 266.601562 108.699219 C 267.066406 109.832031 267.398438 110.367188 267.601562 110.300781 C 267.800781 110.265625 267.933594 109.917969 268 109.25 C 268.066406 108.582031 268.117188 107.832031 268.148438 107 C 268.148438 106.199219 268.199219 105.566406 268.300781 105.101562 C 268.964844 106.367188 269.632812 108.214844 270.300781 110.648438 C 270.964844 113.117188 271.617188 116 272.25 119.300781 C 272.882812 122.601562 273.464844 126.167969 274 130 C 274.433594 133 274.816406 136.066406 275.148438 139.199219 C 275.515625 142.332031 275.816406 145.464844 276.050781 148.601562 C 269.25 148.367188 262.617188 147.851562 256.148438 147.050781 C 249.683594 146.25 243.464844 145.417969 237.5 144.550781 C 231.535156 143.714844 225.882812 143.117188 220.550781 142.75 M 220.050781 156.5 C 220.25 153.234375 220.382812 150.082031 220.449219 147.050781 C 226.214844 147.816406 232.066406 148.785156 238 149.949219 C 243.964844 151.117188 249.898438 152.25 255.800781 153.351562 C 261.734375 154.449219 267.550781 155.300781 273.25 155.898438 C 267.117188 157.199219 261.035156 158 255 158.300781 C 248.933594 158.601562 242.984375 158.550781 237.148438 158.148438 C 231.316406 157.785156 225.617188 157.234375 220.050781 156.5 M 288.898438 148.351562 C 294.234375 142.382812 298.398438 135.601562 301.398438 128 C 304.398438 120.433594 305.917969 112.332031 305.949219 103.699219 C 305.917969 95.464844 304.535156 87.699219 301.800781 80.398438 C 299.066406 73.132812 295.234375 66.550781 290.300781 60.648438 C 285.367188 54.785156 279.601562 49.882812 273 45.949219 C 269.167969 43.648438 265.101562 41.75 260.800781 40.25 C 253.832031 37.785156 246.484375 36.535156 238.75 36.5 C 229.417969 36.566406 220.699219 38.332031 212.601562 41.800781 C 204.5 45.265625 197.382812 50.066406 191.25 56.199219 C 185.082031 62.367188 180.265625 69.484375 176.800781 77.550781 C 173.332031 85.648438 171.566406 94.367188 171.5 103.699219 C 171.535156 110.199219 172.417969 116.433594 174.148438 122.398438 C 175.917969 128.332031 178.398438 133.882812 181.601562 139.050781 C 184.800781 144.214844 188.617188 148.851562 193.050781 152.949219 C 188.617188 152.449219 184.382812 152.167969 180.351562 152.101562 C 176.316406 152.035156 172.5 152.316406 168.898438 152.949219 C 165.332031 153.550781 162.015625 154.601562 158.949219 156.101562 C 163.214844 155.601562 167.667969 155.449219 172.300781 155.648438 C 176.933594 155.882812 181.667969 156.332031 186.5 157 C 191.367188 157.699219 196.285156 158.535156 201.25 159.5 C 205.25 160.234375 209.234375 161 213.199219 161.800781 C 213.398438 161.800781 213.582031 161.832031 213.75 161.898438 C 215.683594 162.265625 217.582031 162.617188 219.449219 162.949219 C 224.148438 163.851562 228.800781 164.617188 233.398438 165.25 C 238.035156 165.917969 242.550781 166.367188 246.949219 166.601562 C 253.285156 166.933594 259.316406 166.582031 265.050781 165.550781 C 269.183594 164.785156 273.082031 163.515625 276.75 161.75 C 279.515625 160.417969 282.117188 158.734375 284.550781 156.699219 C 284.648438 156.632812 284.75 156.566406 284.851562 156.5 C 289.648438 156.5 294.234375 156.015625 298.601562 155.050781 C 302.964844 154.050781 307.035156 152.433594 310.800781 150.199219 C 314.601562 147.964844 318 144.933594 321 141.101562 C 315.632812 143.332031 310.265625 145.015625 304.898438 146.148438 C 299.535156 147.285156 294.199219 148.015625 288.898438 148.351562 "/>
  </g>
  <g id="surface4">
    <text style="fill:rgb(1,59,130)" font-family="Caesar Dressing" font-size="50" transform="matrix(1,0,0,1,149.9,226.3)" id="0" xml:space="preserve"><![CDATA[AFM-RDT]]></text>
    <text style="fill:rgb(187,52,71)" font-family="Kabel Bk BT" font-size="43" transform="matrix(0.3771213655082314,0,0,0.3771213655082314,143.79804336539607,251.84174289813163)" id="1" xml:space="preserve"><![CDATA[Association Franco-Marocaine]]></text>
    <text style="fill:rgb(187,52,71)" font-family="Kabel Bk BT" font-size="27" transform="matrix(0.8777094974833238,0,0,0.8777094974833238,142.21817220077574,277.040630862525)" id="2" xml:space="preserve"><![CDATA[Région Draa-Tafilalet]]></text>
  </g>
</svg>