<?xml version="1.0" encoding="UTF-8"?>
<svg xmlns="http://www.w3.org/2000/svg" xmlns:xlink="http://www.w3.org/1999/xlink" width="100px" height="63px" viewBox="0 0 99 63" version="1.1">
<g id="surface1">
<path style=" stroke:none;fill-rule:evenodd;fill:rgb(70.588235%,21.960784%,18.039216%);fill-opacity:1;" d="M 34.175781 34.171875 C 35.171875 34.09375 36.21875 34.132812 37.3125 34.285156 C 38.410156 34.4375 39.53125 34.652344 40.671875 34.921875 C 41.820312 35.1875 42.96875 35.457031 44.117188 35.738281 C 45.265625 36.007812 46.394531 36.226562 47.5 36.394531 C 48.605469 36.5625 49.664062 36.621094 50.675781 36.570312 C 51.691406 36.523438 52.640625 36.308594 53.523438 35.933594 C 54.402344 35.558594 55.191406 34.964844 55.894531 34.148438 C 54.449219 34.671875 53.023438 34.992188 51.613281 35.109375 C 50.207031 35.230469 48.828125 35.222656 47.480469 35.089844 C 46.132812 34.957031 44.828125 34.773438 43.570312 34.535156 C 42.320312 34.304688 41.125 34.09375 39.992188 33.898438 C 38.863281 33.710938 37.8125 33.621094 36.835938 33.628906 C 35.859375 33.636719 34.972656 33.816406 34.175781 34.171875 "/>
<path style=" stroke:none;fill-rule:evenodd;fill:rgb(98.039216%,80.392157%,46.27451%);fill-opacity:1;" d="M 41.011719 23.027344 C 40.875 23.332031 40.761719 23.652344 40.671875 23.976562 C 40.773438 24.101562 40.878906 24.230469 40.984375 24.351562 C 41.03125 23.914062 41.039062 23.472656 41.011719 23.027344 M 58.367188 21.722656 C 58.328125 21.632812 58.285156 21.539062 58.242188 21.441406 C 58.253906 21.558594 58.238281 21.679688 58.203125 21.796875 C 58.121094 21.476562 58.046875 21.148438 57.988281 20.816406 C 57.925781 20.488281 57.847656 20.164062 57.75 19.84375 C 57.75 20.160156 57.746094 20.472656 57.738281 20.785156 C 57.734375 21.105469 57.703125 21.417969 57.648438 21.722656 C 57.585938 21.394531 57.527344 21.074219 57.46875 20.753906 C 57.410156 20.425781 57.339844 20.101562 57.265625 19.78125 C 57.265625 20.160156 57.195312 20.519531 57.058594 20.867188 C 57.058594 20.605469 57.027344 20.335938 56.964844 20.0625 C 56.902344 19.785156 56.808594 19.535156 56.679688 19.304688 C 56.667969 19.628906 56.636719 19.953125 56.574219 20.273438 C 56.519531 19.875 56.433594 19.492188 56.316406 19.117188 C 56.21875 19.421875 56.164062 19.738281 56.152344 20.0625 C 56.0625 19.597656 55.910156 19.160156 55.695312 18.75 C 55.78125 19.273438 55.808594 19.796875 55.78125 20.324219 C 55.726562 20.152344 55.664062 19.972656 55.59375 19.792969 C 55.53125 19.617188 55.480469 19.441406 55.429688 19.261719 C 55.402344 19.492188 55.367188 19.585938 55.328125 19.554688 C 55.285156 19.519531 55.238281 19.417969 55.183594 19.25 C 55.128906 19.074219 55.074219 18.898438 55.027344 18.707031 C 54.972656 18.519531 54.921875 18.386719 54.882812 18.3125 C 54.953125 18.738281 54.980469 19.179688 54.964844 19.644531 C 54.957031 20.113281 54.894531 20.554688 54.769531 20.972656 C 54.78125 20.402344 54.726562 19.84375 54.605469 19.292969 C 54.582031 19.703125 54.53125 20.113281 54.449219 20.523438 C 54.429688 20.050781 54.34375 19.585938 54.191406 19.136719 C 54.15625 19.40625 54.207031 19.84375 54.335938 20.4375 C 54.46875 21.039062 54.648438 21.765625 54.882812 22.621094 C 55.117188 23.476562 55.363281 24.429688 55.625 25.480469 C 56.214844 24.964844 56.742188 24.394531 57.203125 23.769531 C 57.664062 23.132812 58.050781 22.453125 58.367188 21.722656 M 42.890625 25.5 C 42.863281 25.550781 42.835938 25.617188 42.808594 25.710938 C 42.78125 25.800781 42.753906 25.894531 42.726562 25.992188 C 42.800781 26.046875 42.875 26.101562 42.953125 26.160156 C 42.945312 25.886719 42.925781 25.667969 42.890625 25.5 M 42.148438 25.53125 C 42.214844 25.023438 42.308594 24.527344 42.425781 24.039062 C 42.351562 24.179688 42.285156 24.324219 42.230469 24.476562 C 42.277344 24.25 42.320312 24.019531 42.351562 23.789062 C 42.386719 23.558594 42.429688 23.332031 42.476562 23.101562 C 42.351562 23.351562 42.234375 23.601562 42.117188 23.851562 C 42.007812 24.109375 41.875 24.351562 41.726562 24.582031 C 41.882812 24.074219 41.984375 23.550781 42.023438 23.007812 C 41.898438 23.269531 41.789062 23.542969 41.691406 23.820312 C 41.589844 24.089844 41.472656 24.355469 41.34375 24.613281 C 41.445312 24.160156 41.488281 23.707031 41.464844 23.246094 C 41.355469 23.652344 41.210938 24.039062 41.03125 24.414062 C 41.378906 24.8125 41.75 25.183594 42.148438 25.53125 M 59.140625 17.695312 C 59.148438 18.105469 59.113281 18.507812 59.039062 18.898438 C 59.003906 18.570312 58.960938 18.234375 58.90625 17.894531 C 58.847656 17.546875 58.757812 17.21875 58.625 16.914062 C 58.632812 17.148438 58.636719 17.390625 58.636719 17.632812 C 58.636719 17.871094 58.621094 18.105469 58.59375 18.34375 C 58.527344 17.996094 58.449219 17.652344 58.367188 17.320312 C 58.28125 16.988281 58.167969 16.65625 58.027344 16.328125 C 58.089844 16.757812 58.09375 17.195312 58.039062 17.632812 C 57.964844 17.363281 57.875 17.0625 57.78125 16.734375 C 57.675781 16.417969 57.539062 16.140625 57.367188 15.914062 C 57.417969 16.132812 57.460938 16.363281 57.503906 16.597656 C 57.542969 16.828125 57.558594 17.0625 57.542969 17.296875 C 57.351562 16.839844 57.148438 16.390625 56.933594 15.941406 C 56.976562 16.226562 57.011719 16.515625 57.039062 16.808594 C 56.902344 16.539062 56.75 16.261719 56.585938 15.984375 C 56.414062 15.707031 56.199219 15.480469 55.945312 15.304688 C 56.160156 15.683594 56.351562 16.070312 56.523438 16.476562 C 56.308594 16.308594 56.113281 16.121094 55.933594 15.914062 C 55.761719 15.710938 55.585938 15.507812 55.410156 15.304688 C 55.558594 15.738281 55.492188 15.886719 55.203125 15.753906 C 55.871094 16.164062 56.457031 16.585938 56.964844 17.015625 C 57.476562 17.449219 57.894531 17.921875 58.226562 18.4375 C 58.546875 18.957031 58.769531 19.558594 58.886719 20.242188 C 59.078125 19.496094 59.191406 18.726562 59.222656 17.925781 C 59.195312 17.847656 59.167969 17.773438 59.140625 17.695312 M 41.324219 21.015625 C 41.136719 21.085938 40.984375 21.203125 40.859375 21.367188 C 40.90625 21.152344 40.972656 20.945312 41.054688 20.753906 C 40.945312 20.808594 40.839844 20.902344 40.746094 21.035156 C 40.648438 21.160156 40.574219 21.269531 40.519531 21.359375 C 40.578125 21.039062 40.691406 20.734375 40.859375 20.449219 C 40.699219 20.546875 40.570312 20.675781 40.464844 20.835938 C 40.363281 20.996094 40.261719 21.15625 40.167969 21.316406 C 40.257812 20.96875 40.378906 20.636719 40.539062 20.316406 C 40.375 20.449219 40.230469 20.609375 40.113281 20.804688 C 40 21 39.886719 21.1875 39.777344 21.367188 C 39.777344 21.214844 39.804688 21.070312 39.859375 20.929688 C 39.914062 20.796875 39.972656 20.667969 40.042969 20.535156 C 39.925781 20.597656 39.824219 20.695312 39.734375 20.828125 C 39.644531 20.957031 39.566406 21.097656 39.496094 21.246094 C 39.429688 21.394531 39.371094 21.527344 39.320312 21.640625 C 39.378906 21.3125 39.449219 20.988281 39.539062 20.667969 C 39.386719 20.855469 39.269531 21.070312 39.1875 21.304688 C 39.324219 21.683594 39.484375 22.046875 39.671875 22.402344 C 39.90625 22.269531 40.136719 22.136719 40.363281 22.003906 C 40.589844 21.871094 40.789062 21.730469 40.960938 21.578125 C 41.132812 21.417969 41.253906 21.230469 41.324219 21.015625 M 47.375 7.511719 C 46.652344 7.511719 45.945312 7.570312 45.25 7.691406 C 43.925781 8.199219 42.757812 8.933594 41.746094 9.902344 C 40.726562 10.867188 39.933594 12.003906 39.363281 13.304688 C 38.792969 14.605469 38.5 16.011719 38.484375 17.527344 C 38.492188 18.570312 38.636719 19.570312 38.917969 20.523438 C 39.070312 20.203125 39.277344 19.925781 39.539062 19.6875 C 39.722656 19.542969 39.925781 19.433594 40.144531 19.363281 C 40.367188 19.296875 40.582031 19.226562 40.796875 19.15625 C 41.015625 19.078125 41.210938 18.957031 41.382812 18.792969 C 41.191406 18.785156 40.996094 18.804688 40.796875 18.855469 C 40.605469 18.902344 40.414062 18.949219 40.226562 18.988281 C 40.53125 18.824219 40.839844 18.667969 41.15625 18.519531 C 40.917969 18.519531 40.683594 18.554688 40.453125 18.625 C 40.222656 18.695312 39.996094 18.769531 39.777344 18.855469 C 40.058594 18.644531 40.363281 18.484375 40.691406 18.375 C 40.480469 18.386719 40.265625 18.433594 40.054688 18.507812 C 39.832031 18.578125 39.625 18.652344 39.425781 18.726562 C 39.589844 18.546875 39.777344 18.402344 39.984375 18.289062 C 40.195312 18.179688 40.414062 18.085938 40.640625 18.007812 C 40.339844 17.988281 40.03125 18.039062 39.714844 18.164062 C 39.40625 18.289062 39.117188 18.417969 38.859375 18.550781 C 39.648438 17.84375 40.394531 17.445312 41.097656 17.363281 C 41.789062 17.277344 42.425781 17.46875 43.003906 17.933594 C 43.582031 18.410156 44.085938 19.121094 44.519531 20.074219 C 44.585938 19.773438 44.628906 19.46875 44.640625 19.15625 C 44.726562 19.371094 44.796875 19.589844 44.859375 19.8125 C 45.050781 19.5625 45.277344 19.359375 45.539062 19.199219 C 45.347656 19.535156 45.167969 19.875 45.003906 20.230469 C 45.527344 20.21875 45.976562 20.289062 46.355469 20.449219 C 46.734375 20.617188 47.046875 20.847656 47.304688 21.140625 C 47.285156 20.625 47.359375 20.125 47.53125 19.636719 C 47.667969 19.289062 47.871094 18.96875 48.140625 18.675781 C 48.40625 18.378906 48.6875 18.089844 48.972656 17.820312 C 49.265625 17.542969 49.511719 17.261719 49.726562 16.976562 C 49.941406 16.683594 50.054688 16.371094 50.078125 16.035156 C 49.871094 16.183594 49.71875 16.378906 49.625 16.621094 C 49.605469 16.351562 49.609375 16.074219 49.644531 15.796875 C 49.535156 15.902344 49.441406 16.050781 49.367188 16.246094 C 49.296875 16.441406 49.238281 16.601562 49.191406 16.734375 C 49.164062 16.3125 49.203125 15.898438 49.3125 15.496094 C 49.148438 15.667969 49.027344 15.871094 48.953125 16.097656 C 48.878906 16.328125 48.808594 16.558594 48.746094 16.789062 C 48.746094 16.335938 48.789062 15.882812 48.871094 15.429688 C 48.714844 15.648438 48.59375 15.898438 48.507812 16.183594 C 48.433594 16.460938 48.359375 16.730469 48.285156 16.988281 C 48.234375 16.796875 48.222656 16.609375 48.242188 16.421875 C 48.261719 16.242188 48.292969 16.058594 48.335938 15.871094 C 48.210938 15.988281 48.113281 16.140625 48.046875 16.328125 C 47.976562 16.523438 47.929688 16.726562 47.902344 16.933594 C 47.867188 17.144531 47.835938 17.324219 47.808594 17.476562 C 47.765625 17.058594 47.75 16.640625 47.757812 16.214844 C 47.660156 16.445312 47.59375 16.6875 47.5625 16.945312 C 47.527344 17.207031 47.496094 17.460938 47.46875 17.695312 C 47.359375 17.363281 47.320312 17.015625 47.355469 16.664062 C 47.203125 16.90625 47.085938 17.167969 47.003906 17.445312 C 46.921875 17.722656 46.847656 18 46.789062 18.269531 C 46.789062 17.90625 46.800781 17.535156 46.828125 17.152344 C 46.847656 16.769531 46.90625 16.394531 46.992188 16.027344 C 47.085938 15.65625 47.230469 15.316406 47.4375 15.003906 C 47.617188 14.761719 47.828125 14.558594 48.078125 14.398438 C 48.332031 14.246094 48.578125 14.085938 48.820312 13.917969 C 49.058594 13.75 49.257812 13.535156 49.417969 13.273438 C 49.175781 13.335938 48.945312 13.429688 48.71875 13.554688 C 48.496094 13.679688 48.277344 13.796875 48.058594 13.90625 C 48.378906 13.601562 48.714844 13.308594 49.058594 13.019531 C 48.761719 13.105469 48.480469 13.226562 48.222656 13.386719 C 47.953125 13.554688 47.699219 13.722656 47.457031 13.898438 C 47.734375 13.542969 48.058594 13.238281 48.4375 12.988281 C 48.171875 13.078125 47.917969 13.207031 47.683594 13.375 C 47.445312 13.542969 47.210938 13.703125 46.984375 13.855469 C 47.128906 13.578125 47.3125 13.335938 47.53125 13.125 C 47.75 12.925781 47.988281 12.738281 48.242188 12.5625 C 47.988281 12.601562 47.746094 12.699219 47.511719 12.84375 C 47.269531 12.984375 47.042969 13.136719 46.828125 13.3125 C 46.613281 13.496094 46.414062 13.667969 46.21875 13.835938 C 46.960938 12.695312 47.75 11.953125 48.582031 11.613281 C 49.421875 11.269531 50.273438 11.296875 51.140625 11.683594 C 52.007812 12.066406 52.859375 12.773438 53.699219 13.804688 C 53.683594 13.40625 53.636719 13.015625 53.554688 12.625 C 53.726562 12.871094 53.886719 13.117188 54.035156 13.367188 C 54.1875 13 54.402344 12.667969 54.679688 12.375 C 54.539062 12.855469 54.429688 13.339844 54.347656 13.835938 C 55.179688 13.59375 55.910156 13.5625 56.542969 13.742188 C 57.167969 13.921875 57.703125 14.253906 58.140625 14.742188 C 58.582031 15.230469 58.929688 15.808594 59.183594 16.476562 C 59.09375 15.613281 58.910156 14.785156 58.625 13.992188 C 57.855469 12.691406 56.902344 11.554688 55.761719 10.589844 C 54.617188 9.625 53.335938 8.871094 51.914062 8.324219 C 50.492188 7.789062 48.976562 7.519531 47.375 7.511719 M 54.65625 26.242188 C 54.539062 25.441406 54.414062 24.695312 54.285156 24 C 54.152344 23.308594 54.019531 22.710938 53.882812 22.203125 C 53.746094 21.6875 53.609375 21.300781 53.472656 21.035156 C 53.457031 21.132812 53.445312 21.265625 53.441406 21.429688 C 53.441406 21.605469 53.433594 21.761719 53.417969 21.902344 C 53.40625 22.046875 53.375 22.121094 53.335938 22.128906 C 53.289062 22.136719 53.21875 22.027344 53.132812 21.796875 C 53.109375 22.101562 53.085938 22.410156 53.058594 22.726562 C 53.015625 22.488281 52.96875 22.25 52.914062 22.003906 C 52.859375 21.769531 52.808594 21.527344 52.757812 21.285156 C 52.746094 21.492188 52.738281 21.691406 52.738281 21.882812 C 52.730469 22.066406 52.742188 22.265625 52.769531 22.476562 C 52.667969 21.972656 52.585938 21.464844 52.53125 20.941406 C 52.46875 20.417969 52.433594 19.902344 52.417969 19.386719 C 52.375 19.585938 52.347656 19.789062 52.324219 19.992188 C 52.3125 19.691406 52.289062 19.394531 52.253906 19.105469 C 52.21875 18.804688 52.191406 18.507812 52.171875 18.21875 C 52.101562 18.566406 52.039062 18.914062 51.984375 19.261719 C 51.929688 19.613281 51.851562 19.960938 51.746094 20.292969 C 51.777344 19.613281 51.726562 18.933594 51.59375 18.261719 C 51.53125 18.628906 51.484375 18.996094 51.449219 19.363281 C 51.414062 19.734375 51.355469 20.101562 51.273438 20.460938 C 51.273438 20.167969 51.246094 19.875 51.191406 19.582031 C 51.136719 19.300781 51.066406 19.015625 50.984375 18.726562 C 50.984375 19.347656 50.914062 19.960938 50.777344 20.566406 C 50.757812 20.230469 50.707031 19.902344 50.625 19.582031 C 50.542969 19.257812 50.453125 18.9375 50.355469 18.625 C 50.265625 19.136719 50.230469 19.664062 50.242188 20.199219 C 50.265625 20.734375 50.28125 21.261719 50.292969 21.777344 C 50.226562 21.546875 50.164062 21.308594 50.109375 21.066406 C 50.046875 20.828125 49.953125 20.609375 49.832031 20.398438 C 49.84375 20.691406 49.855469 20.984375 49.859375 21.273438 C 49.867188 21.566406 49.851562 21.859375 49.808594 22.148438 C 49.789062 21.867188 49.742188 21.585938 49.664062 21.316406 C 49.59375 21.039062 49.515625 20.761719 49.425781 20.492188 C 49.394531 20.847656 49.382812 21.203125 49.394531 21.566406 C 49.410156 21.929688 49.421875 22.289062 49.425781 22.640625 C 49.28125 22.257812 49.175781 21.863281 49.109375 21.453125 C 49.054688 22.023438 49.046875 22.59375 49.085938 23.164062 C 48.929688 22.835938 48.820312 22.480469 48.765625 22.097656 C 48.714844 21.710938 48.664062 21.335938 48.621094 20.984375 C 48.539062 21.425781 48.511719 21.882812 48.539062 22.339844 C 48.566406 22.804688 48.617188 23.261719 48.6875 23.707031 C 48.511719 23.253906 48.378906 22.789062 48.285156 22.320312 C 48.179688 21.84375 48.085938 21.371094 48.003906 20.898438 C 47.9375 21.34375 47.910156 21.792969 47.921875 22.246094 C 48.101562 22.824219 48.179688 23.433594 48.160156 24.082031 C 48.132812 24.734375 48.027344 25.359375 47.839844 25.949219 C 47.902344 25.351562 47.90625 24.753906 47.847656 24.15625 C 47.773438 24.460938 47.667969 24.757812 47.53125 25.042969 C 47.570312 24.785156 47.605469 24.519531 47.632812 24.25 C 47.660156 23.976562 47.652344 23.710938 47.613281 23.453125 C 47.542969 23.816406 47.441406 24.171875 47.304688 24.519531 C 47.324219 24.25 47.335938 23.976562 47.335938 23.707031 C 47.339844 23.433594 47.324219 23.160156 47.285156 22.882812 C 47.242188 23.222656 47.160156 23.550781 47.035156 23.871094 C 47.027344 23.652344 47.019531 23.40625 47.015625 23.140625 C 47 22.878906 46.953125 22.640625 46.871094 22.433594 C 46.855469 22.613281 46.84375 22.796875 46.828125 22.976562 C 46.816406 23.164062 46.78125 23.34375 46.726562 23.519531 C 46.671875 23.128906 46.609375 22.742188 46.539062 22.359375 C 46.511719 22.589844 46.480469 22.816406 46.4375 23.039062 C 46.390625 22.808594 46.332031 22.570312 46.261719 22.328125 C 46.1875 22.078125 46.070312 21.863281 45.910156 21.683594 C 46 22.007812 46.070312 22.34375 46.117188 22.683594 C 45.988281 22.507812 45.878906 22.328125 45.789062 22.140625 C 45.699219 21.945312 45.605469 21.753906 45.507812 21.566406 C 45.539062 21.921875 45.453125 22.019531 45.261719 21.859375 C 45.796875 22.429688 46.230469 22.984375 46.5625 23.527344 C 46.898438 24.078125 47.09375 24.667969 47.148438 25.292969 C 47.203125 25.910156 47.089844 26.628906 46.808594 27.441406 C 46.828125 26.90625 46.828125 26.375 46.808594 25.84375 C 46.746094 26.089844 46.695312 26.332031 46.652344 26.578125 C 46.613281 26.824219 46.558594 27.070312 46.488281 27.304688 C 46.460938 27.140625 46.4375 26.96875 46.414062 26.792969 C 46.398438 26.882812 46.363281 26.972656 46.3125 27.054688 C 46.3125 26.789062 46.324219 26.53125 46.34375 26.273438 C 46.367188 26.015625 46.371094 25.753906 46.367188 25.488281 C 46.296875 25.726562 46.226562 25.964844 46.160156 26.199219 C 46.097656 26.4375 46.011719 26.664062 45.902344 26.886719 C 45.957031 26.375 45.992188 25.855469 46.015625 25.332031 C 45.933594 25.617188 45.804688 25.878906 45.632812 26.117188 C 45.6875 25.921875 45.71875 25.710938 45.726562 25.488281 C 45.734375 25.265625 45.707031 25.054688 45.652344 24.855469 C 45.59375 25.097656 45.503906 25.332031 45.398438 25.5625 C 45.425781 25.257812 45.433594 24.945312 45.425781 24.636719 C 45.289062 24.851562 45.183594 25.078125 45.105469 25.324219 C 45.132812 24.953125 45.105469 24.589844 45.023438 24.230469 C 44.992188 24.644531 44.90625 25.046875 44.777344 25.4375 C 44.769531 25.292969 44.757812 25.144531 44.746094 25 C 44.730469 24.855469 44.726562 24.707031 44.726562 24.5625 C 44.65625 24.726562 44.613281 24.796875 44.589844 24.757812 C 44.5625 24.726562 44.546875 24.636719 44.539062 24.496094 C 44.53125 24.359375 44.527344 24.214844 44.527344 24.058594 C 44.527344 23.914062 44.519531 23.804688 44.5 23.738281 C 44.464844 24.070312 44.394531 24.410156 44.292969 24.757812 C 44.195312 25.113281 44.058594 25.433594 43.878906 25.71875 C 44.003906 25.292969 44.078125 24.859375 44.09375 24.414062 C 43.992188 24.722656 43.871094 25.019531 43.734375 25.3125 C 43.8125 24.949219 43.835938 24.585938 43.808594 24.21875 C 43.730469 24.390625 43.683594 24.683594 43.664062 25.09375 C 43.644531 25.503906 43.632812 26.003906 43.632812 26.597656 C 44.402344 27.054688 45.226562 27.40625 46.105469 27.652344 C 46.988281 27.898438 47.90625 28.027344 48.859375 28.027344 C 49.941406 28.019531 50.96875 27.859375 51.945312 27.554688 C 52.921875 27.242188 53.824219 26.804688 54.65625 26.242188 M 39.09375 21.074219 C 39.085938 21.046875 39.078125 21.023438 39.0625 21.003906 C 39.089844 20.976562 39.113281 20.949219 39.136719 20.929688 C 39.121094 20.980469 39.109375 21.027344 39.09375 21.074219 "/>
<path style=" stroke:none;fill-rule:evenodd;fill:rgb(14.509804%,27.45098%,45.882353%);fill-opacity:1;" d="M 56.625 30.125 C 56.621094 30.125 56.613281 30.125 56.605469 30.125 C 56.472656 29.300781 56.324219 28.5 56.152344 27.722656 C 55.988281 26.945312 55.816406 26.199219 55.636719 25.488281 C 55.367188 24.4375 55.117188 23.488281 54.882812 22.628906 C 54.65625 21.777344 54.472656 21.046875 54.335938 20.449219 C 54.207031 19.851562 54.15625 19.417969 54.191406 19.144531 C 54.347656 19.589844 54.441406 20.050781 54.460938 20.523438 C 54.535156 20.121094 54.585938 19.710938 54.613281 19.304688 C 54.730469 19.851562 54.78125 20.410156 54.769531 20.972656 C 54.894531 20.5625 54.960938 20.125 54.976562 19.65625 C 54.980469 19.191406 54.953125 18.746094 54.882812 18.320312 C 54.921875 18.398438 54.972656 18.53125 55.027344 18.71875 C 55.082031 18.90625 55.132812 19.082031 55.183594 19.25 C 55.238281 19.425781 55.289062 19.527344 55.335938 19.5625 C 55.378906 19.597656 55.414062 19.5 55.441406 19.273438 C 55.488281 19.453125 55.542969 19.628906 55.605469 19.800781 C 55.667969 19.976562 55.726562 20.152344 55.78125 20.335938 C 55.816406 19.800781 55.789062 19.273438 55.695312 18.75 C 55.910156 19.167969 56.0625 19.605469 56.152344 20.0625 C 56.171875 19.742188 56.226562 19.429688 56.316406 19.117188 C 56.433594 19.496094 56.523438 19.882812 56.585938 20.273438 C 56.648438 19.960938 56.679688 19.640625 56.679688 19.3125 C 56.808594 19.542969 56.902344 19.792969 56.964844 20.0625 C 57.035156 20.34375 57.070312 20.613281 57.070312 20.878906 C 57.199219 20.523438 57.269531 20.160156 57.273438 19.78125 C 57.421875 20.429688 57.542969 21.078125 57.648438 21.734375 C 57.707031 21.425781 57.738281 21.117188 57.738281 20.792969 C 57.746094 20.480469 57.753906 20.167969 57.761719 19.855469 C 57.847656 20.175781 57.925781 20.5 57.988281 20.828125 C 58.046875 21.152344 58.125 21.476562 58.214844 21.796875 C 58.242188 21.683594 58.253906 21.570312 58.253906 21.453125 C 58.289062 21.550781 58.328125 21.640625 58.367188 21.734375 C 58.417969 21.839844 58.460938 21.941406 58.503906 22.046875 C 58.507812 21.84375 58.507812 21.640625 58.492188 21.429688 C 58.480469 21.222656 58.464844 21.011719 58.449219 20.792969 C 58.429688 20.578125 58.421875 20.363281 58.421875 20.148438 C 58.503906 20.425781 58.582031 20.703125 58.65625 20.984375 C 58.761719 21.359375 58.855469 21.734375 58.945312 22.109375 C 59 21.414062 58.980469 20.792969 58.886719 20.25 C 58.769531 19.570312 58.546875 18.96875 58.226562 18.445312 C 57.902344 17.925781 57.484375 17.449219 56.976562 17.015625 C 56.46875 16.59375 55.878906 16.171875 55.214844 15.753906 C 55.117188 15.714844 55 15.644531 54.863281 15.546875 C 54.980469 15.613281 55.097656 15.683594 55.214844 15.753906 C 55.496094 15.886719 55.558594 15.742188 55.410156 15.316406 C 55.59375 15.519531 55.773438 15.71875 55.945312 15.921875 C 56.117188 16.132812 56.3125 16.316406 56.535156 16.476562 C 56.359375 16.078125 56.164062 15.691406 55.945312 15.316406 C 56.207031 15.484375 56.421875 15.710938 56.585938 15.996094 C 56.757812 16.273438 56.90625 16.546875 57.039062 16.808594 C 57.015625 16.523438 56.988281 16.234375 56.945312 15.941406 C 57.160156 16.394531 57.363281 16.847656 57.554688 17.296875 C 57.566406 17.070312 57.550781 16.835938 57.503906 16.597656 C 57.460938 16.371094 57.417969 16.144531 57.367188 15.921875 C 57.546875 16.152344 57.683594 16.425781 57.78125 16.746094 C 57.882812 17.066406 57.972656 17.363281 58.046875 17.632812 C 58.097656 17.203125 58.089844 16.769531 58.027344 16.339844 C 58.167969 16.660156 58.28125 16.988281 58.367188 17.332031 C 58.449219 17.664062 58.527344 18.003906 58.59375 18.351562 C 58.628906 18.117188 58.648438 17.875 58.648438 17.632812 C 58.640625 17.394531 58.632812 17.160156 58.625 16.925781 C 58.757812 17.230469 58.855469 17.554688 58.914062 17.894531 C 58.96875 18.242188 59.011719 18.578125 59.039062 18.90625 C 59.121094 18.507812 59.160156 18.109375 59.152344 17.707031 C 59.179688 17.78125 59.203125 17.859375 59.222656 17.933594 C 59.449219 18.589844 59.621094 19.253906 59.730469 19.929688 C 59.757812 19.359375 59.726562 18.777344 59.636719 18.1875 C 59.546875 17.59375 59.394531 17.027344 59.183594 16.484375 C 58.929688 15.816406 58.585938 15.242188 58.152344 14.753906 C 57.710938 14.265625 57.175781 13.933594 56.542969 13.75 C 55.910156 13.566406 55.179688 13.59375 54.347656 13.835938 C 54.4375 13.347656 54.546875 12.863281 54.679688 12.386719 C 54.402344 12.675781 54.191406 13.007812 54.046875 13.375 C 53.890625 13.125 53.726562 12.878906 53.5625 12.636719 C 53.644531 13.027344 53.691406 13.417969 53.699219 13.8125 C 52.859375 12.785156 52.007812 12.078125 51.140625 11.695312 C 50.273438 11.308594 49.425781 11.28125 48.59375 11.625 C 47.761719 11.957031 46.972656 12.695312 46.230469 13.835938 C 46.414062 13.675781 46.613281 13.503906 46.828125 13.324219 C 47.046875 13.144531 47.273438 12.984375 47.511719 12.84375 C 47.75 12.703125 47.992188 12.609375 48.242188 12.5625 C 47.992188 12.742188 47.757812 12.933594 47.53125 13.136719 C 47.3125 13.34375 47.128906 13.589844 46.984375 13.867188 C 47.210938 13.707031 47.445312 13.542969 47.683594 13.375 C 47.925781 13.207031 48.175781 13.082031 48.4375 13 C 48.058594 13.242188 47.734375 13.546875 47.457031 13.90625 C 47.707031 13.726562 47.960938 13.554688 48.222656 13.394531 C 48.480469 13.230469 48.761719 13.109375 49.058594 13.03125 C 48.714844 13.308594 48.382812 13.605469 48.066406 13.917969 C 48.28125 13.800781 48.5 13.679688 48.726562 13.554688 C 48.945312 13.4375 49.175781 13.34375 49.417969 13.28125 C 49.257812 13.546875 49.058594 13.761719 48.820312 13.929688 C 48.578125 14.089844 48.335938 14.25 48.085938 14.410156 C 47.839844 14.570312 47.625 14.769531 47.449219 15.015625 C 47.242188 15.320312 47.09375 15.65625 47.003906 16.027344 C 46.90625 16.394531 46.847656 16.773438 46.828125 17.164062 C 46.808594 17.546875 46.796875 17.917969 46.796875 18.28125 C 46.851562 18 46.921875 17.722656 47.003906 17.445312 C 47.09375 17.167969 47.214844 16.910156 47.367188 16.671875 C 47.332031 17.027344 47.367188 17.371094 47.46875 17.707031 C 47.496094 17.464844 47.527344 17.210938 47.5625 16.957031 C 47.59375 16.691406 47.660156 16.449219 47.757812 16.222656 C 47.757812 16.648438 47.777344 17.070312 47.820312 17.488281 C 47.847656 17.335938 47.875 17.152344 47.902344 16.945312 C 47.9375 16.734375 47.988281 16.535156 48.058594 16.339844 C 48.117188 16.144531 48.214844 15.992188 48.34375 15.882812 C 48.304688 16.066406 48.269531 16.25 48.242188 16.433594 C 48.222656 16.621094 48.234375 16.808594 48.285156 16.996094 C 48.359375 16.738281 48.4375 16.472656 48.519531 16.191406 C 48.59375 15.910156 48.71875 15.65625 48.882812 15.441406 C 48.792969 15.894531 48.75 16.347656 48.757812 16.796875 C 48.820312 16.570312 48.886719 16.339844 48.960938 16.109375 C 49.039062 15.882812 49.160156 15.679688 49.324219 15.503906 C 49.214844 15.910156 49.171875 16.320312 49.199219 16.746094 C 49.242188 16.613281 49.300781 16.449219 49.375 16.253906 C 49.445312 16.0625 49.539062 15.914062 49.65625 15.808594 C 49.621094 16.078125 49.609375 16.351562 49.625 16.628906 C 49.71875 16.390625 49.871094 16.191406 50.078125 16.046875 C 50.054688 16.378906 49.941406 16.695312 49.726562 16.988281 C 49.519531 17.269531 49.269531 17.550781 48.972656 17.820312 C 48.6875 18.101562 48.40625 18.382812 48.140625 18.675781 C 47.878906 18.96875 47.679688 19.289062 47.539062 19.636719 C 47.367188 20.128906 47.289062 20.632812 47.304688 21.140625 C 47.054688 20.847656 46.738281 20.621094 46.355469 20.460938 C 45.976562 20.300781 45.527344 20.226562 45.003906 20.242188 C 45.167969 19.886719 45.351562 19.542969 45.550781 19.207031 C 45.28125 19.367188 45.054688 19.574219 44.867188 19.824219 C 44.800781 19.601562 44.726562 19.382812 44.652344 19.167969 C 44.640625 19.472656 44.59375 19.78125 44.519531 20.085938 C 44.09375 19.132812 43.589844 18.417969 43.011719 17.945312 C 42.433594 17.480469 41.796875 17.285156 41.097656 17.363281 C 40.394531 17.445312 39.648438 17.84375 38.859375 18.5625 C 39.125 18.429688 39.414062 18.300781 39.722656 18.175781 C 40.03125 18.042969 40.339844 17.988281 40.640625 18.007812 C 40.414062 18.089844 40.199219 18.191406 39.992188 18.300781 C 39.785156 18.410156 39.601562 18.558594 39.4375 18.738281 C 39.632812 18.664062 39.839844 18.585938 40.054688 18.507812 C 40.265625 18.433594 40.484375 18.390625 40.703125 18.382812 C 40.367188 18.488281 40.058594 18.648438 39.777344 18.863281 C 40 18.78125 40.226562 18.703125 40.453125 18.636719 C 40.691406 18.566406 40.925781 18.53125 41.167969 18.53125 C 40.851562 18.675781 40.539062 18.832031 40.226562 19 C 40.421875 18.957031 40.613281 18.914062 40.804688 18.863281 C 41 18.816406 41.191406 18.792969 41.382812 18.792969 C 41.210938 18.957031 41.019531 19.078125 40.804688 19.15625 C 40.585938 19.234375 40.367188 19.304688 40.144531 19.375 C 39.933594 19.445312 39.734375 19.554688 39.550781 19.699219 C 39.285156 19.929688 39.078125 20.207031 38.917969 20.535156 C 38.804688 20.777344 38.703125 21.027344 38.621094 21.285156 C 38.53125 21.542969 38.453125 21.792969 38.394531 22.035156 C 38.484375 21.855469 38.582031 21.675781 38.691406 21.492188 C 38.804688 21.3125 38.929688 21.148438 39.074219 21.003906 C 39.09375 20.984375 39.117188 20.960938 39.144531 20.941406 C 39.125 20.984375 39.109375 21.03125 39.09375 21.085938 C 39.03125 21.296875 39.007812 21.515625 39.023438 21.742188 C 39.078125 21.605469 39.132812 21.464844 39.1875 21.316406 C 39.277344 21.078125 39.394531 20.867188 39.539062 20.679688 C 39.449219 21 39.378906 21.320312 39.320312 21.640625 C 39.378906 21.527344 39.4375 21.398438 39.496094 21.253906 C 39.566406 21.101562 39.644531 20.957031 39.734375 20.828125 C 39.824219 20.695312 39.925781 20.597656 40.042969 20.535156 C 39.972656 20.667969 39.914062 20.800781 39.859375 20.941406 C 39.804688 21.074219 39.777344 21.214844 39.777344 21.367188 C 39.886719 21.195312 40 21.007812 40.113281 20.804688 C 40.230469 20.609375 40.375 20.449219 40.539062 20.324219 C 40.386719 20.644531 40.265625 20.976562 40.179688 21.316406 C 40.265625 21.15625 40.363281 20.996094 40.464844 20.835938 C 40.578125 20.683594 40.710938 20.554688 40.867188 20.449219 C 40.703125 20.742188 40.585938 21.046875 40.519531 21.367188 C 40.578125 21.277344 40.660156 21.167969 40.757812 21.035156 C 40.84375 20.902344 40.945312 20.808594 41.054688 20.753906 C 40.972656 20.957031 40.910156 21.160156 40.867188 21.367188 C 40.992188 21.207031 41.148438 21.09375 41.332031 21.023438 C 41.257812 21.242188 41.132812 21.421875 40.960938 21.578125 C 40.789062 21.738281 40.589844 21.882812 40.363281 22.015625 C 40.136719 22.140625 39.90625 22.269531 39.671875 22.402344 C 39.480469 22.511719 39.296875 22.632812 39.125 22.765625 C 38.953125 22.898438 38.804688 23.046875 38.679688 23.214844 C 38.4375 23.582031 38.265625 23.980469 38.175781 24.40625 C 38.085938 24.824219 38.046875 25.253906 38.054688 25.699219 C 38.058594 26.136719 38.082031 26.566406 38.117188 26.992188 C 38.191406 26.539062 38.273438 26.082031 38.363281 25.613281 C 38.453125 25.148438 38.59375 24.699219 38.785156 24.269531 C 38.746094 24.644531 38.714844 25.023438 38.703125 25.40625 C 38.679688 25.78125 38.6875 26.160156 38.722656 26.535156 C 38.765625 26.1875 38.820312 25.835938 38.890625 25.480469 C 38.964844 25.125 39.078125 24.789062 39.226562 24.46875 C 39.1875 24.746094 39.148438 25.035156 39.113281 25.332031 C 39.082031 25.640625 39.085938 25.929688 39.136719 26.210938 C 39.226562 25.769531 39.351562 25.34375 39.507812 24.925781 C 39.472656 25.246094 39.472656 25.566406 39.507812 25.886719 C 39.578125 25.613281 39.640625 25.34375 39.703125 25.074219 C 39.765625 24.796875 39.84375 24.523438 39.941406 24.257812 C 39.953125 24.480469 39.960938 24.703125 39.960938 24.925781 C 39.953125 25.15625 39.933594 25.378906 39.898438 25.59375 C 39.988281 25.378906 40.058594 25.164062 40.105469 24.945312 C 40.160156 24.726562 40.210938 24.496094 40.257812 24.269531 C 40.3125 24.457031 40.339844 24.648438 40.332031 24.84375 C 40.332031 25.03125 40.332031 25.222656 40.332031 25.417969 C 40.441406 24.945312 40.558594 24.464844 40.683594 23.976562 C 40.765625 23.652344 40.875 23.335938 41.011719 23.039062 C 41.039062 23.476562 41.03125 23.914062 40.984375 24.351562 C 40.976562 24.4375 40.964844 24.515625 40.953125 24.59375 C 40.980469 24.535156 41.003906 24.476562 41.03125 24.414062 C 41.21875 24.039062 41.367188 23.652344 41.476562 23.257812 C 41.476562 23.480469 41.46875 23.710938 41.457031 23.945312 C 41.433594 24.175781 41.398438 24.402344 41.34375 24.625 C 41.472656 24.367188 41.589844 24.097656 41.691406 23.820312 C 41.796875 23.550781 41.910156 23.28125 42.035156 23.015625 C 41.992188 23.550781 41.894531 24.078125 41.734375 24.59375 C 41.878906 24.355469 42.011719 24.113281 42.125 23.863281 C 42.238281 23.605469 42.351562 23.355469 42.476562 23.109375 C 42.433594 23.339844 42.398438 23.570312 42.363281 23.800781 C 42.332031 24.03125 42.285156 24.257812 42.230469 24.476562 C 42.292969 24.332031 42.355469 24.1875 42.425781 24.050781 C 42.308594 24.535156 42.21875 25.035156 42.15625 25.542969 C 42.117188 25.847656 42.085938 26.148438 42.066406 26.449219 C 42.085938 26.304688 42.113281 26.164062 42.148438 26.03125 C 42.179688 25.898438 42.222656 25.769531 42.269531 25.636719 C 42.277344 25.609375 42.285156 25.582031 42.292969 25.550781 C 42.292969 25.585938 42.292969 25.621094 42.292969 25.65625 C 42.277344 26.003906 42.257812 26.351562 42.230469 26.699219 C 42.3125 26.472656 42.394531 26.242188 42.476562 26.011719 C 42.5 26.171875 42.523438 26.265625 42.546875 26.292969 C 42.578125 26.320312 42.605469 26.304688 42.632812 26.242188 C 42.667969 26.179688 42.699219 26.097656 42.726562 26 C 42.753906 25.902344 42.785156 25.808594 42.816406 25.71875 C 42.84375 25.628906 42.871094 25.558594 42.890625 25.511719 C 42.925781 25.679688 42.949219 25.898438 42.960938 26.167969 C 42.976562 26.503906 42.96875 26.902344 42.941406 27.367188 C 42.921875 27.828125 42.878906 28.332031 42.816406 28.882812 C 42.019531 28.859375 41.265625 28.914062 40.550781 29.035156 C 39.839844 29.15625 39.183594 29.367188 38.578125 29.671875 C 39.230469 29.589844 39.90625 29.550781 40.601562 29.558594 C 41.292969 29.574219 42.007812 29.617188 42.734375 29.695312 C 42.652344 30.328125 42.558594 30.972656 42.457031 31.636719 C 41.382812 31.480469 40.351562 31.339844 39.351562 31.207031 C 38.320312 30.394531 37.429688 29.445312 36.683594 28.359375 C 35.925781 27.28125 35.34375 26.097656 34.929688 24.8125 C 34.515625 23.53125 34.304688 22.179688 34.300781 20.753906 C 34.304688 19.105469 34.585938 17.550781 35.136719 16.089844 C 35.683594 14.628906 36.457031 13.3125 37.445312 12.144531 C 38.4375 10.984375 39.59375 10.015625 40.917969 9.246094 C 42.246094 8.480469 43.691406 7.964844 45.25 7.699219 C 45.945312 7.582031 46.65625 7.523438 47.386719 7.523438 C 48.988281 7.527344 50.5 7.800781 51.925781 8.335938 C 53.339844 8.871094 54.621094 9.625 55.769531 10.601562 C 56.910156 11.566406 57.867188 12.699219 58.636719 14.003906 C 59.222656 14.996094 59.671875 16.0625 59.988281 17.195312 C 60.304688 18.328125 60.460938 19.515625 60.460938 20.753906 C 60.449219 22.597656 60.105469 24.316406 59.429688 25.917969 C 58.757812 27.511719 57.820312 28.914062 56.625 30.125 M 43.632812 28.902344 C 43.640625 28.046875 43.640625 27.28125 43.632812 26.605469 C 43.632812 26.015625 43.644531 25.511719 43.671875 25.105469 C 43.695312 24.695312 43.742188 24.398438 43.816406 24.21875 C 43.839844 24.59375 43.8125 24.960938 43.734375 25.324219 C 43.878906 25.03125 44 24.730469 44.09375 24.425781 C 44.082031 24.871094 44.011719 25.304688 43.890625 25.730469 C 44.0625 25.445312 44.199219 25.125 44.304688 24.769531 C 44.40625 24.414062 44.472656 24.070312 44.507812 23.738281 C 44.523438 23.804688 44.53125 23.917969 44.539062 24.070312 C 44.539062 24.222656 44.542969 24.371094 44.550781 24.507812 C 44.550781 24.648438 44.5625 24.734375 44.589844 24.769531 C 44.617188 24.804688 44.667969 24.738281 44.734375 24.570312 C 44.734375 24.71875 44.738281 24.863281 44.746094 25.011719 C 44.757812 25.15625 44.769531 25.304688 44.777344 25.449219 C 44.90625 25.050781 44.992188 24.648438 45.035156 24.238281 C 45.109375 24.597656 45.136719 24.960938 45.117188 25.324219 C 45.191406 25.078125 45.296875 24.855469 45.425781 24.644531 C 45.441406 24.949219 45.429688 25.261719 45.398438 25.574219 C 45.503906 25.34375 45.59375 25.105469 45.664062 24.863281 C 45.710938 25.066406 45.734375 25.277344 45.726562 25.5 C 45.71875 25.722656 45.691406 25.929688 45.640625 26.125 C 45.816406 25.890625 45.9375 25.628906 46.015625 25.34375 C 45.992188 25.859375 45.957031 26.375 45.902344 26.886719 C 46.011719 26.671875 46.101562 26.445312 46.171875 26.210938 C 46.238281 25.972656 46.300781 25.738281 46.367188 25.5 C 46.371094 25.757812 46.367188 26.019531 46.34375 26.28125 C 46.332031 26.539062 46.324219 26.800781 46.324219 27.066406 C 46.367188 26.984375 46.398438 26.894531 46.425781 26.804688 C 46.441406 26.972656 46.460938 27.144531 46.488281 27.316406 C 46.558594 27.074219 46.613281 26.828125 46.652344 26.585938 C 46.695312 26.34375 46.746094 26.097656 46.808594 25.855469 C 46.828125 26.382812 46.828125 26.914062 46.808594 27.441406 C 47.097656 26.636719 47.210938 25.917969 47.148438 25.292969 C 47.09375 24.667969 46.902344 24.082031 46.570312 23.539062 C 46.242188 22.996094 45.808594 22.441406 45.273438 21.871094 C 45.203125 21.820312 45.128906 21.742188 45.046875 21.628906 C 45.121094 21.710938 45.195312 21.792969 45.273438 21.871094 C 45.457031 22.03125 45.539062 21.929688 45.507812 21.578125 C 45.605469 21.765625 45.699219 21.953125 45.789062 22.140625 C 45.882812 22.335938 45.992188 22.515625 46.117188 22.683594 C 46.070312 22.347656 46.003906 22.019531 45.921875 21.691406 C 46.078125 21.871094 46.191406 22.085938 46.261719 22.328125 C 46.332031 22.578125 46.390625 22.820312 46.4375 23.046875 C 46.480469 22.820312 46.511719 22.59375 46.539062 22.371094 C 46.609375 22.753906 46.671875 23.132812 46.726562 23.519531 C 46.78125 23.34375 46.820312 23.164062 46.839844 22.984375 C 46.851562 22.796875 46.863281 22.613281 46.871094 22.433594 C 46.960938 22.648438 47.007812 22.886719 47.015625 23.152344 C 47.027344 23.417969 47.035156 23.65625 47.035156 23.871094 C 47.160156 23.558594 47.246094 23.234375 47.292969 22.890625 C 47.328125 23.164062 47.34375 23.433594 47.34375 23.707031 C 47.339844 23.984375 47.328125 24.257812 47.3125 24.53125 C 47.445312 24.183594 47.546875 23.824219 47.621094 23.453125 C 47.65625 23.71875 47.660156 23.988281 47.632812 24.257812 C 47.605469 24.53125 47.570312 24.792969 47.53125 25.042969 C 47.675781 24.765625 47.785156 24.46875 47.859375 24.15625 C 47.910156 24.757812 47.90625 25.363281 47.847656 25.960938 C 48.035156 25.367188 48.140625 24.746094 48.160156 24.089844 C 48.1875 23.445312 48.109375 22.832031 47.921875 22.253906 C 47.910156 21.796875 47.941406 21.347656 48.015625 20.910156 C 48.089844 21.382812 48.179688 21.855469 48.285156 22.328125 C 48.386719 22.796875 48.519531 23.257812 48.6875 23.714844 C 48.617188 23.265625 48.566406 22.808594 48.539062 22.347656 C 48.519531 21.890625 48.550781 21.4375 48.632812 20.992188 C 48.667969 21.347656 48.714844 21.714844 48.765625 22.097656 C 48.820312 22.488281 48.929688 22.84375 49.085938 23.164062 C 49.046875 22.597656 49.058594 22.03125 49.117188 21.464844 C 49.1875 21.871094 49.292969 22.269531 49.425781 22.652344 C 49.425781 22.296875 49.421875 21.9375 49.40625 21.578125 C 49.394531 21.214844 49.398438 20.855469 49.425781 20.503906 C 49.523438 20.773438 49.605469 21.046875 49.675781 21.316406 C 49.746094 21.59375 49.792969 21.875 49.820312 22.160156 C 49.859375 21.871094 49.878906 21.578125 49.871094 21.285156 C 49.859375 20.992188 49.84375 20.699219 49.832031 20.398438 C 49.953125 20.613281 50.046875 20.839844 50.109375 21.074219 C 50.167969 21.3125 50.234375 21.550781 50.304688 21.785156 C 50.28125 21.265625 50.265625 20.734375 50.253906 20.199219 C 50.238281 19.664062 50.273438 19.136719 50.355469 18.625 C 50.460938 18.945312 50.546875 19.265625 50.625 19.582031 C 50.707031 19.910156 50.761719 20.238281 50.789062 20.566406 C 50.917969 19.96875 50.988281 19.359375 50.996094 18.738281 C 51.070312 19.015625 51.136719 19.304688 51.191406 19.59375 C 51.246094 19.886719 51.277344 20.179688 51.28125 20.472656 C 51.359375 20.109375 51.414062 19.742188 51.449219 19.363281 C 51.484375 18.996094 51.535156 18.632812 51.601562 18.269531 C 51.726562 18.9375 51.777344 19.613281 51.746094 20.304688 C 51.859375 19.964844 51.941406 19.617188 51.996094 19.273438 C 52.050781 18.917969 52.113281 18.570312 52.179688 18.230469 C 52.203125 18.519531 52.230469 18.816406 52.261719 19.117188 C 52.296875 19.40625 52.320312 19.703125 52.335938 20 C 52.347656 19.792969 52.378906 19.589844 52.429688 19.394531 C 52.441406 19.910156 52.476562 20.429688 52.53125 20.949219 C 52.585938 21.464844 52.667969 21.976562 52.769531 22.484375 C 52.75 22.277344 52.738281 22.078125 52.738281 21.890625 C 52.738281 21.695312 52.746094 21.496094 52.757812 21.296875 C 52.808594 21.539062 52.859375 21.78125 52.914062 22.015625 C 52.96875 22.25 53.019531 22.492188 53.066406 22.734375 C 53.089844 22.421875 53.109375 22.109375 53.132812 21.796875 C 53.226562 22.03125 53.292969 22.144531 53.335938 22.128906 C 53.375 22.121094 53.40625 22.050781 53.417969 21.910156 C 53.433594 21.773438 53.441406 21.613281 53.449219 21.441406 C 53.449219 21.273438 53.460938 21.144531 53.480469 21.046875 C 53.617188 21.308594 53.753906 21.695312 53.894531 22.203125 C 54.03125 22.71875 54.164062 23.320312 54.296875 24.007812 C 54.425781 24.695312 54.546875 25.441406 54.65625 26.242188 C 54.746094 26.867188 54.824219 27.507812 54.894531 28.160156 C 54.96875 28.8125 55.03125 29.46875 55.078125 30.125 C 53.675781 30.074219 52.308594 29.96875 50.972656 29.800781 C 49.640625 29.632812 48.359375 29.460938 47.128906 29.277344 C 45.898438 29.101562 44.730469 28.980469 43.632812 28.902344 M 43.53125 31.769531 C 43.570312 31.089844 43.597656 30.433594 43.613281 29.800781 C 44.800781 29.957031 46.007812 30.160156 47.230469 30.40625 C 48.460938 30.648438 49.6875 30.882812 50.902344 31.113281 C 52.125 31.34375 53.328125 31.519531 54.5 31.644531 C 53.234375 31.917969 51.980469 32.085938 50.738281 32.148438 C 49.488281 32.210938 48.257812 32.199219 47.054688 32.117188 C 45.851562 32.039062 44.675781 31.925781 43.53125 31.769531 M 57.730469 30.070312 C 58.828125 28.824219 59.6875 27.410156 60.308594 25.824219 C 60.925781 24.246094 61.238281 22.554688 61.246094 20.753906 C 61.238281 19.035156 60.953125 17.414062 60.390625 15.890625 C 59.828125 14.375 59.035156 13 58.015625 11.769531 C 57 10.546875 55.8125 9.523438 54.449219 8.703125 C 53.660156 8.222656 52.820312 7.824219 51.933594 7.511719 C 50.496094 7 48.980469 6.738281 47.386719 6.730469 C 45.460938 6.742188 43.664062 7.113281 41.992188 7.835938 C 40.324219 8.558594 38.855469 9.558594 37.589844 10.839844 C 36.316406 12.128906 35.324219 13.613281 34.609375 15.296875 C 33.894531 16.988281 33.53125 18.804688 33.515625 20.753906 C 33.523438 22.109375 33.703125 23.410156 34.0625 24.65625 C 34.425781 25.894531 34.9375 27.050781 35.597656 28.128906 C 36.257812 29.207031 37.046875 30.175781 37.960938 31.03125 C 37.046875 30.925781 36.171875 30.867188 35.34375 30.851562 C 34.507812 30.839844 33.722656 30.898438 32.980469 31.03125 C 32.242188 31.15625 31.558594 31.375 30.929688 31.6875 C 31.804688 31.582031 32.726562 31.550781 33.679688 31.59375 C 34.636719 31.640625 35.613281 31.738281 36.609375 31.875 C 37.613281 32.019531 38.628906 32.195312 39.652344 32.398438 C 40.476562 32.550781 41.296875 32.710938 42.117188 32.878906 C 42.15625 32.878906 42.195312 32.882812 42.230469 32.898438 C 42.628906 32.972656 43.019531 33.046875 43.40625 33.117188 C 44.375 33.304688 45.332031 33.464844 46.28125 33.597656 C 47.238281 33.738281 48.171875 33.828125 49.078125 33.878906 C 50.382812 33.949219 51.628906 33.875 52.8125 33.660156 C 53.664062 33.5 54.46875 33.234375 55.222656 32.867188 C 55.792969 32.589844 56.328125 32.238281 56.832031 31.8125 C 56.851562 31.796875 56.875 31.785156 56.894531 31.769531 C 57.882812 31.769531 58.828125 31.667969 59.730469 31.46875 C 60.628906 31.261719 61.46875 30.921875 62.246094 30.457031 C 63.03125 29.988281 63.730469 29.359375 64.351562 28.558594 C 63.242188 29.023438 62.136719 29.375 61.027344 29.609375 C 59.921875 29.847656 58.820312 30 57.730469 30.070312 "/>
<path style=" stroke:none;fill-rule:nonzero;fill:rgb(0.392157%,23.137255%,50.980392%);fill-opacity:1;" d="M 34.4375 41.828125 L 33.058594 45.617188 L 35.824219 45.617188 Z M 33.867188 40.816406 L 35.019531 40.816406 L 37.886719 48.425781 L 36.824219 48.425781 L 36.140625 46.472656 L 32.753906 46.472656 L 32.070312 48.425781 L 30.992188 48.425781 Z M 33.867188 40.816406 "/>
<path style=" stroke:none;fill-rule:nonzero;fill:rgb(0.392157%,23.137255%,50.980392%);fill-opacity:1;" d="M 38.980469 40.816406 L 43.304688 40.816406 L 43.304688 41.683594 L 39.996094 41.683594 L 39.996094 43.925781 L 42.980469 43.925781 L 42.980469 44.792969 L 39.996094 44.792969 L 39.996094 48.425781 L 38.980469 48.425781 Z M 38.980469 40.816406 "/>
<path style=" stroke:none;fill-rule:nonzero;fill:rgb(0.392157%,23.137255%,50.980392%);fill-opacity:1;" d="M 44.914062 40.816406 L 46.425781 40.816406 L 48.347656 45.996094 L 50.277344 40.816406 L 51.792969 40.816406 L 51.792969 48.425781 L 50.800781 48.425781 L 50.800781 41.742188 L 48.859375 46.960938 L 47.839844 46.960938 L 45.902344 41.742188 L 45.902344 48.425781 L 44.914062 48.425781 Z M 44.914062 40.816406 "/>
<path style=" stroke:none;fill-rule:nonzero;fill:rgb(0.392157%,23.137255%,50.980392%);fill-opacity:1;" d="M 53.304688 45.144531 L 56.015625 45.144531 L 56.015625 45.980469 L 53.304688 45.980469 Z M 53.304688 45.144531 "/>
<path style=" stroke:none;fill-rule:nonzero;fill:rgb(0.392157%,23.137255%,50.980392%);fill-opacity:1;" d="M 61.097656 44.859375 C 61.316406 44.933594 61.527344 45.09375 61.730469 45.335938 C 61.9375 45.578125 62.148438 45.917969 62.359375 46.347656 L 63.386719 48.425781 L 62.292969 48.425781 L 61.335938 46.472656 C 61.085938 45.960938 60.84375 45.625 60.613281 45.460938 C 60.378906 45.292969 60.0625 45.210938 59.660156 45.210938 L 58.546875 45.210938 L 58.546875 48.425781 L 57.53125 48.425781 L 57.53125 40.816406 L 59.828125 40.816406 C 60.6875 40.816406 61.328125 41 61.75 41.363281 C 62.171875 41.726562 62.386719 42.277344 62.386719 43.011719 C 62.386719 43.492188 62.273438 43.886719 62.054688 44.207031 C 61.835938 44.519531 61.515625 44.738281 61.097656 44.859375 Z M 58.546875 41.664062 L 58.546875 44.363281 L 59.828125 44.363281 C 60.320312 44.363281 60.691406 44.25 60.9375 44.023438 C 61.183594 43.792969 61.3125 43.453125 61.3125 43.011719 C 61.3125 42.5625 61.183594 42.226562 60.9375 42.003906 C 60.691406 41.78125 60.320312 41.664062 59.828125 41.664062 Z M 58.546875 41.664062 "/>
<path style=" stroke:none;fill-rule:nonzero;fill:rgb(0.392157%,23.137255%,50.980392%);fill-opacity:1;" d="M 65.710938 41.664062 L 65.710938 47.574219 L 66.941406 47.574219 C 67.980469 47.574219 68.742188 47.339844 69.21875 46.863281 C 69.703125 46.390625 69.945312 45.640625 69.945312 44.609375 C 69.945312 43.589844 69.703125 42.847656 69.21875 42.375 C 68.742188 41.902344 67.980469 41.664062 66.941406 41.664062 Z M 64.695312 40.816406 L 66.785156 40.816406 C 68.246094 40.816406 69.316406 41.125 69.996094 41.738281 C 70.679688 42.351562 71.019531 43.308594 71.019531 44.609375 C 71.019531 45.925781 70.675781 46.890625 69.992188 47.503906 C 69.304688 48.117188 68.238281 48.425781 66.785156 48.425781 L 64.695312 48.425781 Z M 64.695312 40.816406 "/>
<path style=" stroke:none;fill-rule:nonzero;fill:rgb(0.392157%,23.137255%,50.980392%);fill-opacity:1;" d="M 71.59375 40.816406 L 77.957031 40.816406 L 77.957031 41.683594 L 75.285156 41.683594 L 75.285156 48.425781 L 74.269531 48.425781 L 74.269531 41.683594 L 71.59375 41.683594 Z M 71.59375 40.816406 "/>
<path style=" stroke:none;fill-rule:nonzero;fill:rgb(73.333333%,20.392157%,27.843137%);fill-opacity:1;" d="M 30.804688 51.617188 L 30.355469 52.847656 L 31.25 52.847656 Z M 30.617188 51.285156 L 30.992188 51.285156 L 31.917969 53.753906 L 31.574219 53.753906 L 31.351562 53.121094 L 30.253906 53.121094 L 30.03125 53.753906 L 29.683594 53.753906 Z M 30.617188 51.285156 "/>
<path style=" stroke:none;fill-rule:nonzero;fill:rgb(73.333333%,20.392157%,27.843137%);fill-opacity:1;" d="M 33.425781 51.957031 L 33.425781 52.246094 C 33.339844 52.203125 33.253906 52.167969 33.164062 52.148438 C 33.070312 52.125 32.976562 52.113281 32.878906 52.113281 C 32.730469 52.113281 32.617188 52.140625 32.539062 52.1875 C 32.464844 52.230469 32.429688 52.296875 32.429688 52.386719 C 32.429688 52.464844 32.457031 52.519531 32.507812 52.558594 C 32.5625 52.597656 32.671875 52.636719 32.832031 52.667969 L 32.9375 52.695312 C 33.144531 52.738281 33.296875 52.804688 33.390625 52.890625 C 33.480469 52.976562 33.523438 53.09375 33.523438 53.242188 C 33.523438 53.414062 33.457031 53.550781 33.324219 53.648438 C 33.191406 53.75 33.003906 53.800781 32.765625 53.800781 C 32.671875 53.800781 32.570312 53.789062 32.464844 53.765625 C 32.355469 53.75 32.242188 53.722656 32.125 53.6875 L 32.125 53.375 C 32.238281 53.433594 32.347656 53.476562 32.457031 53.503906 C 32.5625 53.53125 32.671875 53.542969 32.773438 53.542969 C 32.917969 53.542969 33.023438 53.523438 33.097656 53.472656 C 33.175781 53.425781 33.214844 53.355469 33.214844 53.265625 C 33.214844 53.183594 33.183594 53.117188 33.128906 53.074219 C 33.078125 53.03125 32.957031 52.988281 32.773438 52.949219 L 32.671875 52.925781 C 32.480469 52.886719 32.34375 52.824219 32.261719 52.742188 C 32.179688 52.660156 32.140625 52.546875 32.140625 52.402344 C 32.140625 52.230469 32.199219 52.09375 32.320312 52.003906 C 32.445312 51.910156 32.621094 51.859375 32.84375 51.859375 C 32.953125 51.859375 33.054688 51.871094 33.15625 51.886719 C 33.253906 51.898438 33.34375 51.921875 33.425781 51.957031 Z M 33.425781 51.957031 "/>
<path style=" stroke:none;fill-rule:nonzero;fill:rgb(73.333333%,20.392157%,27.843137%);fill-opacity:1;" d="M 35.171875 51.957031 L 35.171875 52.246094 C 35.082031 52.203125 34.996094 52.167969 34.90625 52.148438 C 34.8125 52.125 34.71875 52.113281 34.621094 52.113281 C 34.472656 52.113281 34.359375 52.140625 34.285156 52.1875 C 34.210938 52.230469 34.171875 52.296875 34.171875 52.386719 C 34.171875 52.464844 34.199219 52.519531 34.25 52.558594 C 34.304688 52.597656 34.414062 52.636719 34.574219 52.667969 L 34.679688 52.695312 C 34.886719 52.738281 35.039062 52.804688 35.132812 52.890625 C 35.222656 52.976562 35.265625 53.09375 35.265625 53.242188 C 35.265625 53.414062 35.199219 53.550781 35.066406 53.648438 C 34.933594 53.75 34.746094 53.800781 34.511719 53.800781 C 34.414062 53.800781 34.3125 53.789062 34.207031 53.765625 C 34.097656 53.75 33.984375 53.722656 33.871094 53.6875 L 33.871094 53.375 C 33.980469 53.433594 34.089844 53.476562 34.199219 53.503906 C 34.304688 53.53125 34.414062 53.542969 34.515625 53.542969 C 34.660156 53.542969 34.765625 53.523438 34.839844 53.472656 C 34.917969 53.425781 34.957031 53.355469 34.957031 53.265625 C 34.957031 53.183594 34.925781 53.117188 34.871094 53.074219 C 34.820312 53.03125 34.699219 52.988281 34.515625 52.949219 L 34.414062 52.925781 C 34.222656 52.886719 34.085938 52.824219 34.003906 52.742188 C 33.921875 52.660156 33.882812 52.546875 33.882812 52.402344 C 33.882812 52.230469 33.941406 52.09375 34.0625 52.003906 C 34.1875 51.910156 34.363281 51.859375 34.585938 51.859375 C 34.695312 51.859375 34.796875 51.871094 34.898438 51.886719 C 34.996094 51.898438 35.085938 51.921875 35.171875 51.957031 Z M 35.171875 51.957031 "/>
<path style=" stroke:none;fill-rule:nonzero;fill:rgb(73.333333%,20.392157%,27.843137%);fill-opacity:1;" d="M 36.453125 52.113281 C 36.292969 52.113281 36.164062 52.179688 36.070312 52.308594 C 35.976562 52.4375 35.929688 52.609375 35.929688 52.832031 C 35.929688 53.050781 35.976562 53.222656 36.070312 53.355469 C 36.164062 53.484375 36.292969 53.542969 36.453125 53.542969 C 36.613281 53.542969 36.738281 53.484375 36.835938 53.355469 C 36.929688 53.222656 36.976562 53.050781 36.976562 52.832031 C 36.976562 52.609375 36.929688 52.4375 36.835938 52.308594 C 36.738281 52.179688 36.613281 52.113281 36.453125 52.113281 Z M 36.453125 51.859375 C 36.714844 51.859375 36.921875 51.949219 37.066406 52.121094 C 37.21875 52.289062 37.292969 52.527344 37.292969 52.832031 C 37.292969 53.132812 37.21875 53.371094 37.066406 53.542969 C 36.921875 53.714844 36.714844 53.800781 36.453125 53.800781 C 36.1875 53.800781 35.984375 53.714844 35.839844 53.542969 C 35.691406 53.371094 35.617188 53.132812 35.617188 52.832031 C 35.617188 52.527344 35.691406 52.289062 35.839844 52.121094 C 35.984375 51.949219 36.1875 51.859375 36.453125 51.859375 Z M 36.453125 51.859375 "/>
<path style=" stroke:none;fill-rule:nonzero;fill:rgb(73.333333%,20.392157%,27.843137%);fill-opacity:1;" d="M 39.109375 51.976562 L 39.109375 52.257812 C 39.019531 52.210938 38.933594 52.175781 38.847656 52.152344 C 38.765625 52.128906 38.683594 52.113281 38.597656 52.113281 C 38.398438 52.113281 38.242188 52.179688 38.136719 52.304688 C 38.027344 52.429688 37.976562 52.605469 37.976562 52.832031 C 37.976562 53.054688 38.027344 53.230469 38.136719 53.355469 C 38.242188 53.484375 38.398438 53.542969 38.597656 53.542969 C 38.683594 53.542969 38.765625 53.535156 38.847656 53.511719 C 38.933594 53.484375 39.019531 53.449219 39.109375 53.402344 L 39.109375 53.679688 C 39.023438 53.722656 38.941406 53.75 38.847656 53.765625 C 38.757812 53.789062 38.664062 53.800781 38.5625 53.800781 C 38.289062 53.800781 38.066406 53.710938 37.902344 53.539062 C 37.742188 53.363281 37.664062 53.128906 37.664062 52.832031 C 37.664062 52.527344 37.746094 52.289062 37.910156 52.121094 C 38.074219 51.949219 38.296875 51.859375 38.582031 51.859375 C 38.675781 51.859375 38.761719 51.871094 38.847656 51.890625 C 38.941406 51.910156 39.023438 51.9375 39.109375 51.976562 Z M 39.109375 51.976562 "/>
<path style=" stroke:none;fill-rule:nonzero;fill:rgb(73.333333%,20.392157%,27.843137%);fill-opacity:1;" d="M 39.632812 51.90625 L 39.929688 51.90625 L 39.929688 53.753906 L 39.632812 53.753906 Z M 39.632812 51.179688 L 39.929688 51.179688 L 39.929688 51.566406 L 39.632812 51.566406 Z M 39.632812 51.179688 "/>
<path style=" stroke:none;fill-rule:nonzero;fill:rgb(73.333333%,20.392157%,27.843137%);fill-opacity:1;" d="M 41.390625 52.824219 C 41.148438 52.824219 40.980469 52.855469 40.886719 52.910156 C 40.789062 52.964844 40.742188 53.058594 40.742188 53.199219 C 40.742188 53.304688 40.777344 53.386719 40.847656 53.453125 C 40.917969 53.515625 41.015625 53.542969 41.136719 53.542969 C 41.304688 53.542969 41.4375 53.484375 41.539062 53.367188 C 41.636719 53.246094 41.6875 53.085938 41.6875 52.890625 L 41.6875 52.824219 Z M 41.992188 52.695312 L 41.992188 53.753906 L 41.6875 53.753906 L 41.6875 53.472656 C 41.625 53.585938 41.539062 53.667969 41.4375 53.722656 C 41.332031 53.773438 41.207031 53.800781 41.058594 53.800781 C 40.871094 53.800781 40.71875 53.746094 40.605469 53.640625 C 40.5 53.539062 40.445312 53.398438 40.445312 53.21875 C 40.445312 53.007812 40.511719 52.851562 40.652344 52.746094 C 40.789062 52.640625 40.996094 52.585938 41.265625 52.585938 L 41.6875 52.585938 L 41.6875 52.558594 C 41.6875 52.417969 41.644531 52.308594 41.550781 52.230469 C 41.460938 52.152344 41.332031 52.113281 41.171875 52.113281 C 41.066406 52.113281 40.964844 52.128906 40.867188 52.152344 C 40.765625 52.179688 40.671875 52.21875 40.582031 52.269531 L 40.582031 51.992188 C 40.6875 51.949219 40.792969 51.914062 40.898438 51.890625 C 41.003906 51.871094 41.101562 51.859375 41.203125 51.859375 C 41.464844 51.859375 41.664062 51.929688 41.792969 52.070312 C 41.925781 52.210938 41.992188 52.417969 41.992188 52.695312 Z M 41.992188 52.695312 "/>
<path style=" stroke:none;fill-rule:nonzero;fill:rgb(73.333333%,20.392157%,27.843137%);fill-opacity:1;" d="M 42.910156 51.375 L 42.910156 51.90625 L 43.523438 51.90625 L 43.523438 52.140625 L 42.910156 52.140625 L 42.910156 53.144531 C 42.910156 53.292969 42.929688 53.390625 42.96875 53.433594 C 43.007812 53.476562 43.09375 53.5 43.21875 53.5 L 43.523438 53.5 L 43.523438 53.753906 L 43.21875 53.753906 C 42.988281 53.753906 42.824219 53.710938 42.734375 53.621094 C 42.648438 53.535156 42.605469 53.378906 42.605469 53.144531 L 42.605469 52.140625 L 42.386719 52.140625 L 42.386719 51.90625 L 42.605469 51.90625 L 42.605469 51.375 Z M 42.910156 51.375 "/>
<path style=" stroke:none;fill-rule:nonzero;fill:rgb(73.333333%,20.392157%,27.843137%);fill-opacity:1;" d="M 43.921875 51.90625 L 44.21875 51.90625 L 44.21875 53.753906 L 43.921875 53.753906 Z M 43.921875 51.179688 L 44.21875 51.179688 L 44.21875 51.566406 L 43.921875 51.566406 Z M 43.921875 51.179688 "/>
<path style=" stroke:none;fill-rule:nonzero;fill:rgb(73.333333%,20.392157%,27.843137%);fill-opacity:1;" d="M 45.558594 52.113281 C 45.398438 52.113281 45.269531 52.179688 45.175781 52.308594 C 45.082031 52.4375 45.03125 52.609375 45.03125 52.832031 C 45.03125 53.050781 45.082031 53.222656 45.175781 53.355469 C 45.269531 53.484375 45.398438 53.542969 45.558594 53.542969 C 45.714844 53.542969 45.84375 53.484375 45.9375 53.355469 C 46.03125 53.222656 46.082031 53.050781 46.082031 52.832031 C 46.082031 52.609375 46.03125 52.4375 45.9375 52.308594 C 45.84375 52.179688 45.714844 52.113281 45.558594 52.113281 Z M 45.558594 51.859375 C 45.820312 51.859375 46.023438 51.949219 46.171875 52.121094 C 46.324219 52.289062 46.398438 52.527344 46.398438 52.832031 C 46.398438 53.132812 46.324219 53.371094 46.171875 53.542969 C 46.023438 53.714844 45.820312 53.800781 45.558594 53.800781 C 45.292969 53.800781 45.089844 53.714844 44.941406 53.542969 C 44.796875 53.371094 44.722656 53.132812 44.722656 52.832031 C 44.722656 52.527344 44.796875 52.289062 44.941406 52.121094 C 45.089844 51.949219 45.292969 51.859375 45.558594 51.859375 Z M 45.558594 51.859375 "/>
<path style=" stroke:none;fill-rule:nonzero;fill:rgb(73.333333%,20.392157%,27.843137%);fill-opacity:1;" d="M 48.417969 52.636719 L 48.417969 53.753906 L 48.113281 53.753906 L 48.113281 52.648438 C 48.113281 52.472656 48.078125 52.339844 48.011719 52.25 C 47.945312 52.164062 47.847656 52.121094 47.714844 52.121094 C 47.546875 52.121094 47.417969 52.171875 47.324219 52.277344 C 47.234375 52.382812 47.1875 52.527344 47.1875 52.707031 L 47.1875 53.753906 L 46.886719 53.753906 L 46.886719 51.90625 L 47.1875 51.90625 L 47.1875 52.191406 C 47.257812 52.078125 47.339844 51.996094 47.441406 51.945312 C 47.539062 51.890625 47.652344 51.859375 47.777344 51.859375 C 47.988281 51.859375 48.148438 51.925781 48.257812 52.054688 C 48.363281 52.1875 48.417969 52.378906 48.417969 52.636719 Z M 48.417969 52.636719 "/>
<path style=" stroke:none;fill-rule:nonzero;fill:rgb(73.333333%,20.392157%,27.843137%);fill-opacity:1;" d="M 50.09375 51.285156 L 51.492188 51.285156 L 51.492188 51.566406 L 50.425781 51.566406 L 50.425781 52.296875 L 51.386719 52.296875 L 51.386719 52.578125 L 50.425781 52.578125 L 50.425781 53.753906 L 50.09375 53.753906 Z M 50.09375 51.285156 "/>
<path style=" stroke:none;fill-rule:nonzero;fill:rgb(73.333333%,20.392157%,27.843137%);fill-opacity:1;" d="M 52.824219 52.1875 C 52.789062 52.167969 52.75 52.15625 52.707031 52.148438 C 52.667969 52.132812 52.625 52.128906 52.578125 52.128906 C 52.410156 52.128906 52.277344 52.183594 52.1875 52.296875 C 52.097656 52.410156 52.050781 52.570312 52.050781 52.78125 L 52.050781 53.753906 L 51.75 53.753906 L 51.75 51.90625 L 52.050781 51.90625 L 52.050781 52.191406 C 52.113281 52.078125 52.191406 51.996094 52.292969 51.945312 C 52.394531 51.890625 52.519531 51.859375 52.667969 51.859375 C 52.6875 51.859375 52.710938 51.863281 52.730469 51.867188 C 52.757812 51.867188 52.785156 51.871094 52.816406 51.871094 Z M 52.824219 52.1875 "/>
<path style=" stroke:none;fill-rule:nonzero;fill:rgb(73.333333%,20.392157%,27.843137%);fill-opacity:1;" d="M 53.964844 52.824219 C 53.722656 52.824219 53.554688 52.855469 53.460938 52.910156 C 53.363281 52.964844 53.316406 53.058594 53.316406 53.199219 C 53.316406 53.304688 53.351562 53.386719 53.421875 53.453125 C 53.492188 53.515625 53.589844 53.542969 53.710938 53.542969 C 53.878906 53.542969 54.011719 53.484375 54.113281 53.367188 C 54.210938 53.246094 54.261719 53.085938 54.261719 52.890625 L 54.261719 52.824219 Z M 54.566406 52.695312 L 54.566406 53.753906 L 54.261719 53.753906 L 54.261719 53.472656 C 54.199219 53.585938 54.113281 53.667969 54.011719 53.722656 C 53.90625 53.773438 53.78125 53.800781 53.632812 53.800781 C 53.445312 53.800781 53.292969 53.746094 53.179688 53.640625 C 53.074219 53.539062 53.019531 53.398438 53.019531 53.21875 C 53.019531 53.007812 53.085938 52.851562 53.226562 52.746094 C 53.363281 52.640625 53.570312 52.585938 53.839844 52.585938 L 54.261719 52.585938 L 54.261719 52.558594 C 54.261719 52.417969 54.21875 52.308594 54.125 52.230469 C 54.035156 52.152344 53.90625 52.113281 53.746094 52.113281 C 53.640625 52.113281 53.539062 52.128906 53.441406 52.152344 C 53.339844 52.179688 53.246094 52.21875 53.15625 52.269531 L 53.15625 51.992188 C 53.261719 51.949219 53.371094 51.914062 53.472656 51.890625 C 53.578125 51.871094 53.675781 51.859375 53.777344 51.859375 C 54.039062 51.859375 54.238281 51.929688 54.367188 52.070312 C 54.5 52.210938 54.566406 52.417969 54.566406 52.695312 Z M 54.566406 52.695312 "/>
<path style=" stroke:none;fill-rule:nonzero;fill:rgb(73.333333%,20.392157%,27.843137%);fill-opacity:1;" d="M 56.707031 52.636719 L 56.707031 53.753906 L 56.402344 53.753906 L 56.402344 52.648438 C 56.402344 52.472656 56.367188 52.339844 56.300781 52.25 C 56.234375 52.164062 56.132812 52.121094 56 52.121094 C 55.835938 52.121094 55.707031 52.171875 55.613281 52.277344 C 55.523438 52.382812 55.476562 52.527344 55.476562 52.707031 L 55.476562 53.753906 L 55.171875 53.753906 L 55.171875 51.90625 L 55.476562 51.90625 L 55.476562 52.191406 C 55.546875 52.078125 55.628906 51.996094 55.730469 51.945312 C 55.828125 51.890625 55.941406 51.859375 56.066406 51.859375 C 56.277344 51.859375 56.4375 51.925781 56.546875 52.054688 C 56.652344 52.1875 56.707031 52.378906 56.707031 52.636719 Z M 56.707031 52.636719 "/>
<path style=" stroke:none;fill-rule:nonzero;fill:rgb(73.333333%,20.392157%,27.843137%);fill-opacity:1;" d="M 58.621094 51.976562 L 58.621094 52.257812 C 58.53125 52.210938 58.445312 52.175781 58.359375 52.152344 C 58.277344 52.128906 58.195312 52.113281 58.109375 52.113281 C 57.910156 52.113281 57.753906 52.179688 57.648438 52.304688 C 57.539062 52.429688 57.488281 52.605469 57.488281 52.832031 C 57.488281 53.054688 57.539062 53.230469 57.648438 53.355469 C 57.753906 53.484375 57.910156 53.542969 58.109375 53.542969 C 58.195312 53.542969 58.277344 53.535156 58.359375 53.511719 C 58.445312 53.484375 58.53125 53.449219 58.621094 53.402344 L 58.621094 53.679688 C 58.535156 53.722656 58.449219 53.75 58.359375 53.765625 C 58.269531 53.789062 58.175781 53.800781 58.074219 53.800781 C 57.800781 53.800781 57.578125 53.710938 57.414062 53.539062 C 57.253906 53.363281 57.175781 53.128906 57.175781 52.832031 C 57.175781 52.527344 57.257812 52.289062 57.421875 52.121094 C 57.585938 51.949219 57.808594 51.859375 58.09375 51.859375 C 58.1875 51.859375 58.273438 51.871094 58.359375 51.890625 C 58.449219 51.910156 58.535156 51.9375 58.621094 51.976562 Z M 58.621094 51.976562 "/>
<path style=" stroke:none;fill-rule:nonzero;fill:rgb(73.333333%,20.392157%,27.843137%);fill-opacity:1;" d="M 59.851562 52.113281 C 59.691406 52.113281 59.5625 52.179688 59.46875 52.308594 C 59.371094 52.4375 59.324219 52.609375 59.324219 52.832031 C 59.324219 53.050781 59.371094 53.222656 59.46875 53.355469 C 59.5625 53.484375 59.691406 53.542969 59.851562 53.542969 C 60.007812 53.542969 60.136719 53.484375 60.230469 53.355469 C 60.324219 53.222656 60.375 53.050781 60.375 52.832031 C 60.375 52.609375 60.324219 52.4375 60.230469 52.308594 C 60.136719 52.179688 60.007812 52.113281 59.851562 52.113281 Z M 59.851562 51.859375 C 60.113281 51.859375 60.316406 51.949219 60.464844 52.121094 C 60.613281 52.289062 60.691406 52.527344 60.691406 52.832031 C 60.691406 53.132812 60.613281 53.371094 60.464844 53.542969 C 60.316406 53.714844 60.113281 53.800781 59.851562 53.800781 C 59.585938 53.800781 59.378906 53.714844 59.234375 53.542969 C 59.085938 53.371094 59.015625 53.132812 59.015625 52.832031 C 59.015625 52.527344 59.085938 52.289062 59.234375 52.121094 C 59.378906 51.949219 59.585938 51.859375 59.851562 51.859375 Z M 59.851562 51.859375 "/>
<path style=" stroke:none;fill-rule:nonzero;fill:rgb(73.333333%,20.392157%,27.843137%);fill-opacity:1;" d="M 61.097656 52.6875 L 61.976562 52.6875 L 61.976562 52.964844 L 61.097656 52.964844 Z M 61.097656 52.6875 "/>
<path style=" stroke:none;fill-rule:nonzero;fill:rgb(73.333333%,20.392157%,27.843137%);fill-opacity:1;" d="M 62.472656 51.285156 L 62.964844 51.285156 L 63.585938 52.964844 L 64.214844 51.285156 L 64.707031 51.285156 L 64.707031 53.753906 L 64.382812 53.753906 L 64.382812 51.585938 L 63.753906 53.277344 L 63.417969 53.277344 L 62.789062 51.585938 L 62.789062 53.753906 L 62.472656 53.753906 Z M 62.472656 51.285156 "/>
<path style=" stroke:none;fill-rule:nonzero;fill:rgb(73.333333%,20.392157%,27.843137%);fill-opacity:1;" d="M 66.171875 52.824219 C 65.929688 52.824219 65.761719 52.855469 65.667969 52.910156 C 65.574219 52.964844 65.527344 53.058594 65.527344 53.199219 C 65.527344 53.304688 65.558594 53.386719 65.628906 53.453125 C 65.703125 53.515625 65.800781 53.542969 65.921875 53.542969 C 66.089844 53.542969 66.222656 53.484375 66.320312 53.367188 C 66.421875 53.246094 66.472656 53.085938 66.472656 52.890625 L 66.472656 52.824219 Z M 66.773438 52.695312 L 66.773438 53.753906 L 66.472656 53.753906 L 66.472656 53.472656 C 66.40625 53.585938 66.320312 53.667969 66.21875 53.722656 C 66.113281 53.773438 65.988281 53.800781 65.84375 53.800781 C 65.652344 53.800781 65.5 53.746094 65.390625 53.640625 C 65.28125 53.539062 65.226562 53.398438 65.226562 53.21875 C 65.226562 53.007812 65.296875 52.851562 65.4375 52.746094 C 65.574219 52.640625 65.777344 52.585938 66.050781 52.585938 L 66.472656 52.585938 L 66.472656 52.558594 C 66.472656 52.417969 66.425781 52.308594 66.335938 52.230469 C 66.246094 52.152344 66.117188 52.113281 65.953125 52.113281 C 65.851562 52.113281 65.746094 52.128906 65.648438 52.152344 C 65.546875 52.179688 65.453125 52.21875 65.363281 52.269531 L 65.363281 51.992188 C 65.472656 51.949219 65.578125 51.914062 65.679688 51.890625 C 65.785156 51.871094 65.886719 51.859375 65.984375 51.859375 C 66.246094 51.859375 66.445312 51.929688 66.574219 52.070312 C 66.707031 52.210938 66.773438 52.417969 66.773438 52.695312 Z M 66.773438 52.695312 "/>
<path style=" stroke:none;fill-rule:nonzero;fill:rgb(73.333333%,20.392157%,27.843137%);fill-opacity:1;" d="M 68.457031 52.1875 C 68.421875 52.167969 68.382812 52.15625 68.339844 52.148438 C 68.300781 52.132812 68.257812 52.128906 68.210938 52.128906 C 68.042969 52.128906 67.914062 52.183594 67.820312 52.296875 C 67.730469 52.410156 67.6875 52.570312 67.6875 52.78125 L 67.6875 53.753906 L 67.382812 53.753906 L 67.382812 51.90625 L 67.6875 51.90625 L 67.6875 52.191406 C 67.746094 52.078125 67.824219 51.996094 67.925781 51.945312 C 68.027344 51.890625 68.152344 51.859375 68.300781 51.859375 C 68.320312 51.859375 68.34375 51.863281 68.367188 51.867188 C 68.390625 51.867188 68.417969 51.871094 68.449219 51.871094 Z M 68.457031 52.1875 "/>
<path style=" stroke:none;fill-rule:nonzero;fill:rgb(73.333333%,20.392157%,27.843137%);fill-opacity:1;" d="M 69.402344 52.113281 C 69.242188 52.113281 69.113281 52.179688 69.019531 52.308594 C 68.925781 52.4375 68.878906 52.609375 68.878906 52.832031 C 68.878906 53.050781 68.925781 53.222656 69.019531 53.355469 C 69.113281 53.484375 69.242188 53.542969 69.402344 53.542969 C 69.558594 53.542969 69.6875 53.484375 69.785156 53.355469 C 69.878906 53.222656 69.925781 53.050781 69.925781 52.832031 C 69.925781 52.609375 69.878906 52.4375 69.785156 52.308594 C 69.6875 52.179688 69.558594 52.113281 69.402344 52.113281 Z M 69.402344 51.859375 C 69.664062 51.859375 69.867188 51.949219 70.015625 52.121094 C 70.167969 52.289062 70.242188 52.527344 70.242188 52.832031 C 70.242188 53.132812 70.167969 53.371094 70.015625 53.542969 C 69.867188 53.714844 69.664062 53.800781 69.402344 53.800781 C 69.136719 53.800781 68.933594 53.714844 68.785156 53.542969 C 68.640625 53.371094 68.566406 53.132812 68.566406 52.832031 C 68.566406 52.527344 68.640625 52.289062 68.785156 52.121094 C 68.933594 51.949219 69.136719 51.859375 69.402344 51.859375 Z M 69.402344 51.859375 "/>
<path style=" stroke:none;fill-rule:nonzero;fill:rgb(73.333333%,20.392157%,27.843137%);fill-opacity:1;" d="M 72.054688 51.976562 L 72.054688 52.257812 C 71.96875 52.210938 71.882812 52.175781 71.796875 52.152344 C 71.714844 52.128906 71.628906 52.113281 71.542969 52.113281 C 71.347656 52.113281 71.191406 52.179688 71.085938 52.304688 C 70.976562 52.429688 70.921875 52.605469 70.921875 52.832031 C 70.921875 53.054688 70.976562 53.230469 71.085938 53.355469 C 71.191406 53.484375 71.347656 53.542969 71.542969 53.542969 C 71.628906 53.542969 71.714844 53.535156 71.796875 53.511719 C 71.882812 53.484375 71.96875 53.449219 72.054688 53.402344 L 72.054688 53.679688 C 71.972656 53.722656 71.886719 53.75 71.796875 53.765625 C 71.707031 53.789062 71.609375 53.800781 71.511719 53.800781 C 71.234375 53.800781 71.015625 53.710938 70.851562 53.539062 C 70.691406 53.363281 70.613281 53.128906 70.613281 52.832031 C 70.613281 52.527344 70.695312 52.289062 70.859375 52.121094 C 71.023438 51.949219 71.246094 51.859375 71.53125 51.859375 C 71.621094 51.859375 71.710938 51.871094 71.796875 51.890625 C 71.886719 51.910156 71.972656 51.9375 72.054688 51.976562 Z M 72.054688 51.976562 "/>
<path style=" stroke:none;fill-rule:nonzero;fill:rgb(73.333333%,20.392157%,27.843137%);fill-opacity:1;" d="M 73.410156 52.824219 C 73.167969 52.824219 73 52.855469 72.90625 52.910156 C 72.808594 52.964844 72.761719 53.058594 72.761719 53.199219 C 72.761719 53.304688 72.796875 53.386719 72.867188 53.453125 C 72.9375 53.515625 73.035156 53.542969 73.15625 53.542969 C 73.324219 53.542969 73.457031 53.484375 73.558594 53.367188 C 73.65625 53.246094 73.707031 53.085938 73.707031 52.890625 L 73.707031 52.824219 Z M 74.011719 52.695312 L 74.011719 53.753906 L 73.707031 53.753906 L 73.707031 53.472656 C 73.640625 53.585938 73.558594 53.667969 73.453125 53.722656 C 73.351562 53.773438 73.226562 53.800781 73.078125 53.800781 C 72.886719 53.800781 72.738281 53.746094 72.625 53.640625 C 72.519531 53.539062 72.464844 53.398438 72.464844 53.21875 C 72.464844 53.007812 72.53125 52.851562 72.671875 52.746094 C 72.808594 52.640625 73.015625 52.585938 73.285156 52.585938 L 73.707031 52.585938 L 73.707031 52.558594 C 73.707031 52.417969 73.660156 52.308594 73.570312 52.230469 C 73.480469 52.152344 73.351562 52.113281 73.1875 52.113281 C 73.085938 52.113281 72.984375 52.128906 72.886719 52.152344 C 72.785156 52.179688 72.691406 52.21875 72.601562 52.269531 L 72.601562 51.992188 C 72.707031 51.949219 72.8125 51.914062 72.917969 51.890625 C 73.019531 51.871094 73.121094 51.859375 73.222656 51.859375 C 73.484375 51.859375 73.679688 51.929688 73.8125 52.070312 C 73.945312 52.210938 74.011719 52.417969 74.011719 52.695312 Z M 74.011719 52.695312 "/>
<path style=" stroke:none;fill-rule:nonzero;fill:rgb(73.333333%,20.392157%,27.843137%);fill-opacity:1;" d="M 74.628906 51.90625 L 74.929688 51.90625 L 74.929688 53.753906 L 74.628906 53.753906 Z M 74.628906 51.179688 L 74.929688 51.179688 L 74.929688 51.566406 L 74.628906 51.566406 Z M 74.628906 51.179688 "/>
<path style=" stroke:none;fill-rule:nonzero;fill:rgb(73.333333%,20.392157%,27.843137%);fill-opacity:1;" d="M 77.082031 52.636719 L 77.082031 53.753906 L 76.777344 53.753906 L 76.777344 52.648438 C 76.777344 52.472656 76.742188 52.339844 76.671875 52.25 C 76.609375 52.164062 76.507812 52.121094 76.375 52.121094 C 76.210938 52.121094 76.082031 52.171875 75.988281 52.277344 C 75.894531 52.382812 75.851562 52.527344 75.851562 52.707031 L 75.851562 53.753906 L 75.546875 53.753906 L 75.546875 51.90625 L 75.851562 51.90625 L 75.851562 52.191406 C 75.917969 52.078125 76.003906 51.996094 76.101562 51.945312 C 76.203125 51.890625 76.3125 51.859375 76.441406 51.859375 C 76.648438 51.859375 76.808594 51.925781 76.917969 52.054688 C 77.027344 52.1875 77.082031 52.378906 77.082031 52.636719 Z M 77.082031 52.636719 "/>
<path style=" stroke:none;fill-rule:nonzero;fill:rgb(73.333333%,20.392157%,27.843137%);fill-opacity:1;" d="M 79.246094 52.753906 L 79.246094 52.898438 L 77.859375 52.898438 C 77.875 53.113281 77.933594 53.273438 78.046875 53.382812 C 78.160156 53.492188 78.316406 53.542969 78.515625 53.542969 C 78.628906 53.542969 78.742188 53.53125 78.851562 53.503906 C 78.957031 53.476562 79.066406 53.433594 79.175781 53.375 L 79.175781 53.660156 C 79.066406 53.707031 78.953125 53.738281 78.839844 53.761719 C 78.726562 53.785156 78.613281 53.800781 78.496094 53.800781 C 78.207031 53.800781 77.972656 53.714844 77.800781 53.542969 C 77.632812 53.371094 77.550781 53.136719 77.550781 52.847656 C 77.550781 52.546875 77.628906 52.308594 77.789062 52.128906 C 77.953125 51.949219 78.171875 51.859375 78.441406 51.859375 C 78.6875 51.859375 78.882812 51.941406 79.027344 52.101562 C 79.171875 52.257812 79.246094 52.476562 79.246094 52.753906 Z M 78.941406 52.664062 C 78.941406 52.496094 78.894531 52.367188 78.804688 52.265625 C 78.714844 52.164062 78.59375 52.113281 78.449219 52.113281 C 78.28125 52.113281 78.144531 52.164062 78.042969 52.257812 C 77.941406 52.355469 77.886719 52.488281 77.875 52.664062 Z M 78.941406 52.664062 "/>
<path style=" stroke:none;fill-rule:nonzero;fill:rgb(73.333333%,20.392157%,27.843137%);fill-opacity:1;" d="M 31.5 57.320312 C 31.605469 57.359375 31.703125 57.433594 31.796875 57.550781 C 31.898438 57.667969 31.996094 57.828125 32.097656 58.027344 L 32.589844 59.011719 L 32.070312 59.011719 L 31.609375 58.085938 C 31.492188 57.847656 31.378906 57.6875 31.269531 57.609375 C 31.160156 57.53125 31.011719 57.492188 30.820312 57.492188 L 30.296875 57.492188 L 30.296875 59.011719 L 29.8125 59.011719 L 29.8125 55.410156 L 30.898438 55.410156 C 31.308594 55.410156 31.613281 55.496094 31.8125 55.667969 C 32.007812 55.839844 32.109375 56.097656 32.109375 56.445312 C 32.109375 56.675781 32.058594 56.863281 31.953125 57.015625 C 31.851562 57.164062 31.699219 57.265625 31.5 57.320312 Z M 30.296875 55.8125 L 30.296875 57.085938 L 30.898438 57.085938 C 31.132812 57.085938 31.304688 57.035156 31.421875 56.929688 C 31.542969 56.824219 31.605469 56.660156 31.605469 56.445312 C 31.605469 56.238281 31.542969 56.082031 31.421875 55.976562 C 31.304688 55.867188 31.132812 55.8125 30.898438 55.8125 Z M 30.296875 55.8125 "/>
<path style=" stroke:none;fill-rule:nonzero;fill:rgb(73.333333%,20.392157%,27.843137%);fill-opacity:1;" d="M 35.253906 57.550781 L 35.253906 57.765625 L 33.234375 57.765625 C 33.253906 58.078125 33.34375 58.3125 33.503906 58.472656 C 33.667969 58.628906 33.898438 58.707031 34.191406 58.707031 C 34.359375 58.707031 34.523438 58.6875 34.675781 58.648438 C 34.835938 58.605469 34.996094 58.542969 35.148438 58.457031 L 35.148438 58.875 C 34.996094 58.941406 34.832031 58.992188 34.664062 59.027344 C 34.5 59.066406 34.335938 59.085938 34.164062 59.085938 C 33.738281 59.085938 33.398438 58.960938 33.148438 58.707031 C 32.902344 58.453125 32.78125 58.117188 32.78125 57.6875 C 32.78125 57.242188 32.898438 56.894531 33.128906 56.636719 C 33.367188 56.375 33.6875 56.246094 34.089844 56.246094 C 34.445312 56.246094 34.730469 56.363281 34.9375 56.597656 C 35.144531 56.832031 35.253906 57.152344 35.253906 57.550781 Z M 34.8125 57.421875 C 34.8125 57.175781 34.746094 56.984375 34.613281 56.839844 C 34.484375 56.695312 34.308594 56.625 34.09375 56.625 C 33.847656 56.625 33.652344 56.695312 33.503906 56.832031 C 33.359375 56.972656 33.273438 57.167969 33.253906 57.421875 Z M 34.476562 55.0625 L 34.949219 55.0625 L 34.171875 55.96875 L 33.808594 55.96875 Z M 34.476562 55.0625 "/>
<path style=" stroke:none;fill-rule:nonzero;fill:rgb(73.333333%,20.392157%,27.843137%);fill-opacity:1;" d="M 37.734375 57.628906 C 37.734375 57.308594 37.667969 57.058594 37.535156 56.882812 C 37.40625 56.707031 37.222656 56.617188 36.984375 56.617188 C 36.753906 56.617188 36.566406 56.707031 36.433594 56.882812 C 36.304688 57.058594 36.242188 57.308594 36.242188 57.628906 C 36.242188 57.953125 36.304688 58.203125 36.433594 58.378906 C 36.566406 58.554688 36.753906 58.640625 36.984375 58.640625 C 37.222656 58.640625 37.40625 58.554688 37.535156 58.378906 C 37.667969 58.203125 37.734375 57.953125 37.734375 57.628906 Z M 38.175781 58.679688 C 38.175781 59.136719 38.074219 59.476562 37.871094 59.699219 C 37.667969 59.925781 37.359375 60.039062 36.941406 60.039062 C 36.789062 60.039062 36.644531 60.027344 36.507812 60.007812 C 36.367188 59.984375 36.234375 59.949219 36.105469 59.902344 L 36.105469 59.464844 C 36.234375 59.539062 36.359375 59.589844 36.488281 59.621094 C 36.617188 59.65625 36.746094 59.671875 36.875 59.671875 C 37.160156 59.671875 37.375 59.597656 37.515625 59.445312 C 37.660156 59.289062 37.734375 59.0625 37.734375 58.757812 L 37.734375 58.535156 C 37.644531 58.699219 37.527344 58.816406 37.386719 58.894531 C 37.246094 58.972656 37.074219 59.011719 36.882812 59.011719 C 36.554688 59.011719 36.289062 58.886719 36.085938 58.632812 C 35.886719 58.382812 35.789062 58.046875 35.789062 57.628906 C 35.789062 57.210938 35.886719 56.875 36.085938 56.625 C 36.289062 56.371094 36.554688 56.246094 36.882812 56.246094 C 37.074219 56.246094 37.246094 56.285156 37.386719 56.363281 C 37.527344 56.441406 37.644531 56.5625 37.734375 56.722656 L 37.734375 56.308594 L 38.175781 56.308594 Z M 38.175781 58.679688 "/>
<path style=" stroke:none;fill-rule:nonzero;fill:rgb(73.333333%,20.392157%,27.843137%);fill-opacity:1;" d="M 39.078125 56.308594 L 39.519531 56.308594 L 39.519531 59.011719 L 39.078125 59.011719 Z M 39.078125 55.257812 L 39.519531 55.257812 L 39.519531 55.820312 L 39.078125 55.820312 Z M 39.078125 55.257812 "/>
<path style=" stroke:none;fill-rule:nonzero;fill:rgb(73.333333%,20.392157%,27.843137%);fill-opacity:1;" d="M 41.472656 56.625 C 41.238281 56.625 41.054688 56.71875 40.914062 56.902344 C 40.777344 57.085938 40.707031 57.339844 40.707031 57.660156 C 40.707031 57.988281 40.773438 58.246094 40.910156 58.433594 C 41.046875 58.613281 41.234375 58.707031 41.472656 58.707031 C 41.703125 58.707031 41.890625 58.613281 42.027344 58.425781 C 42.164062 58.238281 42.234375 57.984375 42.234375 57.660156 C 42.234375 57.34375 42.164062 57.09375 42.027344 56.902344 C 41.890625 56.71875 41.703125 56.625 41.472656 56.625 Z M 41.472656 56.246094 C 41.855469 56.246094 42.15625 56.371094 42.371094 56.625 C 42.589844 56.871094 42.703125 57.21875 42.703125 57.660156 C 42.703125 58.105469 42.589844 58.453125 42.371094 58.707031 C 42.15625 58.960938 41.855469 59.085938 41.472656 59.085938 C 41.085938 59.085938 40.789062 58.960938 40.570312 58.707031 C 40.355469 58.453125 40.25 58.105469 40.25 57.660156 C 40.25 57.21875 40.355469 56.871094 40.570312 56.625 C 40.789062 56.371094 41.085938 56.246094 41.472656 56.246094 Z M 41.472656 56.246094 "/>
<path style=" stroke:none;fill-rule:nonzero;fill:rgb(73.333333%,20.392157%,27.843137%);fill-opacity:1;" d="M 45.648438 57.378906 L 45.648438 59.011719 L 45.214844 59.011719 L 45.214844 57.394531 C 45.214844 57.140625 45.164062 56.953125 45.0625 56.824219 C 44.964844 56.695312 44.816406 56.628906 44.617188 56.628906 C 44.378906 56.628906 44.191406 56.707031 44.054688 56.859375 C 43.921875 57.011719 43.855469 57.222656 43.855469 57.484375 L 43.855469 59.011719 L 43.414062 59.011719 L 43.414062 56.308594 L 43.855469 56.308594 L 43.855469 56.726562 C 43.957031 56.566406 44.082031 56.445312 44.222656 56.367188 C 44.367188 56.285156 44.527344 56.246094 44.714844 56.246094 C 45.019531 56.246094 45.253906 56.339844 45.40625 56.53125 C 45.566406 56.722656 45.648438 57.007812 45.648438 57.378906 Z M 45.648438 57.378906 "/>
<path style=" stroke:none;fill-rule:nonzero;fill:rgb(73.333333%,20.392157%,27.843137%);fill-opacity:1;" d="M 48.582031 55.8125 L 48.582031 58.613281 L 49.164062 58.613281 C 49.652344 58.613281 50.011719 58.503906 50.238281 58.277344 C 50.46875 58.050781 50.582031 57.695312 50.582031 57.210938 C 50.582031 56.726562 50.46875 56.375 50.238281 56.152344 C 50.011719 55.929688 49.652344 55.8125 49.164062 55.8125 Z M 48.097656 55.410156 L 49.089844 55.410156 C 49.777344 55.410156 50.285156 55.554688 50.609375 55.847656 C 50.933594 56.136719 51.09375 56.59375 51.09375 57.210938 C 51.09375 57.828125 50.929688 58.285156 50.601562 58.574219 C 50.277344 58.867188 49.773438 59.011719 49.089844 59.011719 L 48.097656 59.011719 Z M 48.097656 55.410156 "/>
<path style=" stroke:none;fill-rule:nonzero;fill:rgb(73.333333%,20.392157%,27.843137%);fill-opacity:1;" d="M 53.390625 56.726562 C 53.339844 56.699219 53.285156 56.675781 53.226562 56.664062 C 53.171875 56.648438 53.109375 56.644531 53.039062 56.644531 C 52.789062 56.644531 52.597656 56.726562 52.464844 56.890625 C 52.335938 57.050781 52.269531 57.285156 52.269531 57.589844 L 52.269531 59.011719 L 51.828125 59.011719 L 51.828125 56.308594 L 52.269531 56.308594 L 52.269531 56.726562 C 52.359375 56.566406 52.476562 56.445312 52.625 56.367188 C 52.777344 56.285156 52.957031 56.246094 53.167969 56.246094 C 53.199219 56.246094 53.230469 56.246094 53.265625 56.25 C 53.304688 56.257812 53.34375 56.261719 53.390625 56.269531 Z M 53.390625 56.726562 "/>
<path style=" stroke:none;fill-rule:nonzero;fill:rgb(73.333333%,20.392157%,27.843137%);fill-opacity:1;" d="M 55.070312 57.65625 C 54.714844 57.65625 54.46875 57.699219 54.332031 57.777344 C 54.191406 57.863281 54.125 58 54.125 58.195312 C 54.125 58.355469 54.175781 58.480469 54.277344 58.574219 C 54.382812 58.667969 54.523438 58.714844 54.699219 58.714844 C 54.941406 58.714844 55.132812 58.625 55.28125 58.453125 C 55.425781 58.277344 55.503906 58.046875 55.503906 57.753906 L 55.503906 57.65625 Z M 55.941406 57.472656 L 55.941406 59.011719 L 55.503906 59.011719 L 55.503906 58.601562 C 55.402344 58.769531 55.277344 58.890625 55.125 58.96875 C 54.980469 59.046875 54.796875 59.085938 54.582031 59.085938 C 54.304688 59.085938 54.085938 59.007812 53.921875 58.851562 C 53.761719 58.691406 53.683594 58.488281 53.683594 58.230469 C 53.683594 57.925781 53.785156 57.699219 53.988281 57.542969 C 54.191406 57.386719 54.488281 57.308594 54.886719 57.308594 L 55.503906 57.308594 L 55.503906 57.261719 C 55.503906 57.058594 55.433594 56.902344 55.300781 56.792969 C 55.171875 56.679688 54.984375 56.625 54.746094 56.625 C 54.59375 56.625 54.445312 56.644531 54.296875 56.683594 C 54.15625 56.71875 54.015625 56.773438 53.882812 56.84375 L 53.882812 56.433594 C 54.042969 56.367188 54.199219 56.320312 54.351562 56.289062 C 54.5 56.261719 54.648438 56.246094 54.789062 56.246094 C 55.179688 56.246094 55.464844 56.347656 55.65625 56.550781 C 55.847656 56.753906 55.941406 57.058594 55.941406 57.472656 Z M 55.941406 57.472656 "/>
<path style=" stroke:none;fill-rule:nonzero;fill:rgb(73.333333%,20.392157%,27.843137%);fill-opacity:1;" d="M 58.0625 57.65625 C 57.710938 57.65625 57.464844 57.699219 57.324219 57.777344 C 57.1875 57.863281 57.117188 58 57.117188 58.195312 C 57.117188 58.355469 57.171875 58.480469 57.273438 58.574219 C 57.378906 58.667969 57.515625 58.714844 57.695312 58.714844 C 57.9375 58.714844 58.128906 58.625 58.277344 58.453125 C 58.421875 58.277344 58.496094 58.046875 58.496094 57.753906 L 58.496094 57.65625 Z M 58.9375 57.472656 L 58.9375 59.011719 L 58.496094 59.011719 L 58.496094 58.601562 C 58.398438 58.769531 58.273438 58.890625 58.121094 58.96875 C 57.976562 59.046875 57.792969 59.085938 57.578125 59.085938 C 57.300781 59.085938 57.082031 59.007812 56.917969 58.851562 C 56.757812 58.691406 56.679688 58.488281 56.679688 58.230469 C 56.679688 57.925781 56.777344 57.699219 56.984375 57.542969 C 57.183594 57.386719 57.484375 57.308594 57.882812 57.308594 L 58.496094 57.308594 L 58.496094 57.261719 C 58.496094 57.058594 58.429688 56.902344 58.296875 56.792969 C 58.167969 56.679688 57.980469 56.625 57.738281 56.625 C 57.589844 56.625 57.4375 56.644531 57.292969 56.683594 C 57.152344 56.71875 57.011719 56.773438 56.878906 56.84375 L 56.878906 56.433594 C 57.039062 56.367188 57.191406 56.320312 57.34375 56.289062 C 57.496094 56.261719 57.644531 56.246094 57.785156 56.246094 C 58.171875 56.246094 58.460938 56.347656 58.652344 56.550781 C 58.84375 56.753906 58.9375 57.058594 58.9375 57.472656 Z M 58.9375 57.472656 "/>
<path style=" stroke:none;fill-rule:nonzero;fill:rgb(73.333333%,20.392157%,27.843137%);fill-opacity:1;" d="M 59.621094 57.460938 L 60.910156 57.460938 L 60.910156 57.859375 L 59.621094 57.859375 Z M 59.621094 57.460938 "/>
<path style=" stroke:none;fill-rule:nonzero;fill:rgb(73.333333%,20.392157%,27.843137%);fill-opacity:1;" d="M 60.683594 55.410156 L 63.695312 55.410156 L 63.695312 55.820312 L 62.433594 55.820312 L 62.433594 59.011719 L 61.945312 59.011719 L 61.945312 55.820312 L 60.683594 55.820312 Z M 60.683594 55.410156 "/>
<path style=" stroke:none;fill-rule:nonzero;fill:rgb(73.333333%,20.392157%,27.843137%);fill-opacity:1;" d="M 64.550781 57.65625 C 64.195312 57.65625 63.949219 57.699219 63.8125 57.777344 C 63.675781 57.863281 63.605469 58 63.605469 58.195312 C 63.605469 58.355469 63.65625 58.480469 63.761719 58.574219 C 63.863281 58.667969 64.003906 58.714844 64.183594 58.714844 C 64.421875 58.714844 64.617188 58.625 64.765625 58.453125 C 64.910156 58.277344 64.984375 58.046875 64.984375 57.753906 L 64.984375 57.65625 Z M 65.425781 57.472656 L 65.425781 59.011719 L 64.984375 59.011719 L 64.984375 58.601562 C 64.882812 58.769531 64.761719 58.890625 64.609375 58.96875 C 64.460938 59.046875 64.28125 59.085938 64.066406 59.085938 C 63.789062 59.085938 63.570312 59.007812 63.40625 58.851562 C 63.246094 58.691406 63.167969 58.488281 63.167969 58.230469 C 63.167969 57.925781 63.265625 57.699219 63.46875 57.542969 C 63.671875 57.386719 63.972656 57.308594 64.371094 57.308594 L 64.984375 57.308594 L 64.984375 57.261719 C 64.984375 57.058594 64.917969 56.902344 64.785156 56.792969 C 64.65625 56.679688 64.46875 56.625 64.226562 56.625 C 64.074219 56.625 63.925781 56.644531 63.78125 56.683594 C 63.636719 56.71875 63.5 56.773438 63.367188 56.84375 L 63.367188 56.433594 C 63.523438 56.367188 63.679688 56.320312 63.832031 56.289062 C 63.984375 56.261719 64.128906 56.246094 64.273438 56.246094 C 64.660156 56.246094 64.949219 56.347656 65.140625 56.550781 C 65.328125 56.753906 65.425781 57.058594 65.425781 57.472656 Z M 65.425781 57.472656 "/>
<path style=" stroke:none;fill-rule:nonzero;fill:rgb(73.333333%,20.392157%,27.843137%);fill-opacity:1;" d="M 68.492188 56.308594 L 68.492188 59.011719 L 68.050781 59.011719 L 68.050781 56.65625 L 66.839844 56.65625 L 66.839844 59.011719 L 66.402344 59.011719 L 66.402344 56.65625 L 65.980469 56.65625 L 65.980469 56.308594 L 66.402344 56.308594 L 66.402344 56.121094 C 66.402344 55.828125 66.46875 55.613281 66.609375 55.472656 C 66.746094 55.332031 66.957031 55.257812 67.242188 55.257812 L 67.683594 55.257812 L 67.683594 55.625 L 67.261719 55.625 C 67.105469 55.625 66.996094 55.65625 66.929688 55.722656 C 66.871094 55.789062 66.839844 55.902344 66.839844 56.066406 L 66.839844 56.308594 Z M 68.050781 55.265625 L 68.492188 55.265625 L 68.492188 55.828125 L 68.050781 55.828125 Z M 68.050781 55.265625 "/>
<path style=" stroke:none;fill-rule:nonzero;fill:rgb(73.333333%,20.392157%,27.843137%);fill-opacity:1;" d="M 69.410156 55.257812 L 69.847656 55.257812 L 69.847656 59.011719 L 69.410156 59.011719 Z M 69.410156 55.257812 "/>
<path style=" stroke:none;fill-rule:nonzero;fill:rgb(73.333333%,20.392157%,27.843137%);fill-opacity:1;" d="M 71.984375 57.65625 C 71.628906 57.65625 71.382812 57.699219 71.246094 57.777344 C 71.105469 57.863281 71.039062 58 71.039062 58.195312 C 71.039062 58.355469 71.089844 58.480469 71.195312 58.574219 C 71.296875 58.667969 71.4375 58.714844 71.613281 58.714844 C 71.855469 58.714844 72.050781 58.625 72.195312 58.453125 C 72.34375 58.277344 72.417969 58.046875 72.417969 57.753906 L 72.417969 57.65625 Z M 72.855469 57.472656 L 72.855469 59.011719 L 72.417969 59.011719 L 72.417969 58.601562 C 72.316406 58.769531 72.191406 58.890625 72.042969 58.96875 C 71.894531 59.046875 71.714844 59.085938 71.496094 59.085938 C 71.222656 59.085938 71 59.007812 70.835938 58.851562 C 70.675781 58.691406 70.597656 58.488281 70.597656 58.230469 C 70.597656 57.925781 70.699219 57.699219 70.902344 57.542969 C 71.105469 57.386719 71.402344 57.308594 71.800781 57.308594 L 72.417969 57.308594 L 72.417969 57.261719 C 72.417969 57.058594 72.347656 56.902344 72.214844 56.792969 C 72.085938 56.679688 71.902344 56.625 71.660156 56.625 C 71.507812 56.625 71.359375 56.644531 71.214844 56.683594 C 71.070312 56.71875 70.929688 56.773438 70.796875 56.84375 L 70.796875 56.433594 C 70.957031 56.367188 71.113281 56.320312 71.265625 56.289062 C 71.414062 56.261719 71.5625 56.246094 71.703125 56.246094 C 72.09375 56.246094 72.382812 56.347656 72.570312 56.550781 C 72.761719 56.753906 72.855469 57.058594 72.855469 57.472656 Z M 72.855469 57.472656 "/>
<path style=" stroke:none;fill-rule:nonzero;fill:rgb(73.333333%,20.392157%,27.843137%);fill-opacity:1;" d="M 73.761719 55.257812 L 74.203125 55.257812 L 74.203125 59.011719 L 73.761719 59.011719 Z M 73.761719 55.257812 "/>
<path style=" stroke:none;fill-rule:nonzero;fill:rgb(73.333333%,20.392157%,27.843137%);fill-opacity:1;" d="M 77.40625 57.550781 L 77.40625 57.765625 L 75.386719 57.765625 C 75.40625 58.078125 75.496094 58.3125 75.65625 58.472656 C 75.820312 58.628906 76.046875 58.707031 76.34375 58.707031 C 76.511719 58.707031 76.671875 58.6875 76.828125 58.648438 C 76.988281 58.605469 77.144531 58.542969 77.300781 58.457031 L 77.300781 58.875 C 77.144531 58.941406 76.984375 58.992188 76.816406 59.027344 C 76.648438 59.066406 76.484375 59.085938 76.316406 59.085938 C 75.890625 59.085938 75.550781 58.960938 75.300781 58.707031 C 75.054688 58.453125 74.933594 58.117188 74.933594 57.6875 C 74.933594 57.242188 75.046875 56.894531 75.28125 56.636719 C 75.519531 56.375 75.839844 56.246094 76.238281 56.246094 C 76.597656 56.246094 76.878906 56.363281 77.085938 56.597656 C 77.296875 56.832031 77.40625 57.152344 77.40625 57.550781 Z M 76.964844 57.421875 C 76.964844 57.175781 76.894531 56.984375 76.761719 56.839844 C 76.632812 56.695312 76.460938 56.625 76.246094 56.625 C 76 56.625 75.800781 56.695312 75.65625 56.832031 C 75.507812 56.972656 75.425781 57.167969 75.40625 57.421875 Z M 76.964844 57.421875 "/>
<path style=" stroke:none;fill-rule:nonzero;fill:rgb(73.333333%,20.392157%,27.843137%);fill-opacity:1;" d="M 78.558594 55.539062 L 78.558594 56.308594 L 79.464844 56.308594 L 79.464844 56.65625 L 78.558594 56.65625 L 78.558594 58.125 C 78.558594 58.34375 78.589844 58.484375 78.652344 58.550781 C 78.710938 58.613281 78.832031 58.640625 79.011719 58.640625 L 79.464844 58.640625 L 79.464844 59.011719 L 79.011719 59.011719 C 78.675781 59.011719 78.445312 58.953125 78.316406 58.824219 C 78.183594 58.691406 78.121094 58.460938 78.121094 58.125 L 78.121094 56.65625 L 77.796875 56.65625 L 77.796875 56.308594 L 78.121094 56.308594 L 78.121094 55.539062 Z M 78.558594 55.539062 "/>
</g>
</svg>
